<?xml version="1.0" encoding="utf-8" standalone="no"?>
<!DOCTYPE svg PUBLIC "-//W3C//DTD SVG 1.1//EN"
  "http://www.w3.org/Graphics/SVG/1.1/DTD/svg11.dtd">
<!-- Created with matplotlib (http://matplotlib.org/) -->
<svg height="432pt" version="1.1" viewBox="0 0 576 432" width="576pt" xmlns="http://www.w3.org/2000/svg" xmlns:xlink="http://www.w3.org/1999/xlink">
 <defs>
  <style type="text/css">
*{stroke-linecap:butt;stroke-linejoin:round;}
  </style>
 </defs>
 <g id="figure_1">
  <g id="patch_1">
   <path d="
M0 432
L576 432
L576 0
L0 0
z
" style="fill:#ffffff;"/>
  </g>
  <g id="axes_1">
   <g id="patch_2">
    <path d="
M72 388.8
L518.4 388.8
L518.4 43.2
L72 43.2
z
" style="fill:#ffffff;"/>
   </g>
   <g id="line2d_1">
    <path clip-path="url(#p7ff5b81e1d)" d="
M72 379.666
L73.7506 386.578
L75.5012 385.838
L79.0024 386.825
L80.7529 385.591
L82.5035 386.578
L84.2541 386.578
L86.0047 385.591
L87.7553 385.838
L89.5059 386.578
L91.2565 385.591
L93.0071 386.578
L94.7576 385.344
L96.5082 385.097
L98.2588 383.122
L100.009 384.11
L101.76 383.863
L103.511 382.629
L105.261 383.122
L107.012 380.16
L108.762 377.691
L110.513 377.938
L112.264 375.47
L114.014 373.495
L115.765 372.261
L117.515 369.545
L119.266 369.298
L121.016 368.558
L122.767 366.336
L124.518 363.621
L126.268 358.683
L128.019 363.374
L129.769 366.089
L131.52 367.817
L133.271 363.621
L135.021 366.089
L136.772 366.83
L138.522 361.893
L140.273 365.102
L142.024 361.152
L143.774 353.006
L145.525 349.797
L147.275 359.177
L149.026 355.721
L150.776 360.658
L152.527 352.512
L154.278 357.696
L156.028 353.993
L157.779 354.24
L159.529 349.056
L161.28 354.24
L163.031 352.018
L164.781 357.202
L166.532 353.746
L168.282 348.315
L170.033 353.993
L171.784 352.759
L173.534 351.031
L175.285 355.721
L177.035 357.449
L178.786 353.006
L180.536 353.746
L182.287 346.834
L184.038 354.734
L185.788 345.6
L187.539 341.65
L189.289 340.416
L191.04 349.55
L192.791 344.859
L194.541 338.194
L196.292 336.466
L198.042 342.391
L199.793 340.663
L201.544 339.922
L203.294 342.638
L205.045 338.688
L208.546 343.131
L210.296 344.859
L212.047 345.6
L213.798 344.119
L215.548 345.847
L217.299 350.29
L219.049 348.809
L220.8 345.847
L222.551 350.784
L224.301 348.809
L226.052 347.328
L227.802 350.784
L229.553 352.512
L231.304 347.575
L233.054 340.91
L234.805 352.512
L236.555 354.487
L238.306 350.537
L240.056 354.981
L241.807 353.006
L243.558 355.721
L245.308 360.658
L247.059 360.165
L248.809 367.323
L250.56 371.026
L252.311 370.286
L254.061 372.261
L255.812 369.792
L257.562 371.026
L259.313 373.495
L261.064 374.235
L262.814 373.001
L264.565 376.21
L266.315 378.926
L268.066 376.951
L269.816 377.198
L271.567 377.938
L273.318 377.198
L275.068 377.198
L276.819 376.21
L278.569 377.938
L280.32 377.691
L282.071 375.963
L283.821 375.47
L285.572 380.407
L287.322 378.926
L289.073 379.666
L290.824 378.185
L292.574 377.445
L294.325 375.963
L296.075 378.679
L297.826 380.654
L299.576 379.173
L301.327 380.901
L303.078 382.382
L304.828 379.666
L306.579 381.147
L308.329 382.135
L310.08 379.666
L311.831 381.147
L313.581 381.641
L315.332 382.629
L317.082 382.629
L318.833 381.641
L320.584 383.369
L322.334 383.863
L324.085 383.616
L325.835 385.591
L327.586 383.616
L329.336 384.603
L331.087 383.616
L332.838 382.875
L334.588 385.097
L336.339 384.357
L338.089 385.344
L339.84 385.344
L341.591 384.85
L343.341 386.825
L345.092 386.085
L346.842 386.085
L348.593 385.591
L350.344 385.344
L352.094 386.331
L353.845 385.838
L355.595 386.331
L357.346 387.072
L359.096 386.825
L360.847 386.331
L362.598 388.059
L364.348 387.813
L366.099 387.072
L367.849 388.306
L369.6 388.306
L371.351 388.059
L373.101 388.553
L374.852 388.8
L378.353 388.8
L380.104 388.553
L381.854 388.059
L383.605 388.8
L385.355 388.8
L387.106 388.553
L390.607 388.553
L392.358 388.8
L394.108 388.553
L395.859 388.8
L518.4 388.8
L518.4 388.8" style="fill:none;stroke:#0000ff;stroke-linecap:square;"/>
   </g>
   <g id="line2d_2">
    <path clip-path="url(#p7ff5b81e1d)" d="
M72 388.8
L73.7506 388.553
L75.5012 388.8
L77.2518 388.8
L79.0024 388.553
L80.7529 388.8
L82.5035 388.306
L84.2541 388.8
L86.0047 388.553
L87.7553 388.8
L107.012 388.8
L108.762 388.553
L110.513 388.8
L112.264 388.8
L114.014 388.553
L115.765 388.8
L119.266 388.8
L121.016 388.306
L124.518 388.8
L126.268 388.553
L128.019 388.8
L133.271 388.8
L135.021 388.553
L136.772 388.8
L138.522 388.553
L140.273 388.553
L142.024 388.8
L143.774 388.553
L147.275 388.553
L149.026 388.8
L150.776 388.8
L152.527 388.553
L154.278 388.059
L156.028 388.306
L157.779 387.566
L159.529 387.566
L161.28 387.813
L163.031 385.838
L164.781 384.85
L166.532 387.566
L168.282 386.331
L170.033 387.072
L171.784 384.85
L173.534 385.838
L175.285 386.578
L177.035 384.603
L178.786 385.097
L180.536 386.331
L182.287 385.344
L185.788 385.344
L187.539 384.85
L189.289 383.616
L191.04 382.875
L192.791 383.122
L194.541 381.147
L196.292 382.875
L198.042 381.147
L199.793 379.666
L201.544 380.407
L203.294 380.901
L205.045 379.666
L206.795 380.407
L208.546 379.419
L210.296 382.875
L212.047 381.147
L213.798 378.185
L215.548 381.394
L217.299 381.147
L219.049 377.938
L220.8 382.629
L222.551 380.901
L224.301 381.147
L227.802 377.691
L229.553 378.185
L231.304 378.432
L233.054 378.926
L236.555 379.419
L238.306 377.691
L240.056 379.913
L241.807 378.926
L243.558 376.21
L245.308 381.641
L247.059 374.235
L248.809 375.223
L250.56 373.742
L252.311 373.001
L254.061 374.235
L255.812 373.742
L257.562 370.039
L259.313 376.951
L261.064 376.951
L262.814 371.767
L264.565 375.717
L266.315 374.482
L268.066 375.717
L269.816 374.729
L271.567 376.21
L273.318 373.495
L275.068 375.717
L276.819 374.482
L278.569 376.21
L280.32 372.261
L282.071 376.704
L283.821 373.742
L285.572 376.704
L287.322 373.248
L289.073 377.691
L290.824 375.223
L292.574 377.445
L294.325 376.457
L296.075 379.173
L297.826 377.938
L299.576 375.223
L301.327 375.47
L303.078 376.21
L304.828 374.729
L306.579 373.001
L308.329 376.457
L310.08 372.014
L311.831 374.729
L313.581 369.051
L315.332 374.482
L317.082 374.235
L318.833 366.336
L320.584 369.051
L322.334 366.583
L324.085 365.842
L325.835 367.323
L327.586 366.336
L329.336 356.215
L331.087 359.177
L332.838 356.709
L334.588 356.215
L336.339 355.227
L338.089 358.437
L339.84 359.671
L341.591 352.759
L343.341 353.006
L345.092 354.24
L346.842 340.663
L348.593 350.784
L350.344 354.487
L353.845 345.106
L355.595 348.069
L357.346 338.935
L359.096 352.018
L360.847 347.328
L362.598 338.441
L364.348 332.023
L366.099 341.897
L367.849 332.023
L369.6 336.713
L371.351 336.219
L373.101 323.63
L374.852 330.048
L376.602 331.035
L378.353 327.333
L380.104 327.333
L381.854 328.073
L383.605 341.403
L385.355 333.257
L387.106 334.245
L388.856 340.91
L390.607 337.947
L392.358 338.688
L394.108 341.403
L395.859 338.194
L397.609 336.96
L399.36 348.809
L401.111 344.859
L402.861 353.499
L404.612 357.449
L406.362 358.93
L408.113 365.102
L409.864 361.152
L411.614 360.411
L413.365 363.374
L415.115 363.374
L416.866 367.817
L418.616 366.089
L420.367 371.273
L422.118 367.323
L423.868 370.039
L425.619 376.21
L427.369 374.235
L429.12 376.951
L430.871 374.235
L432.621 381.394
L434.372 380.16
L436.122 379.913
L437.873 380.901
L439.624 379.419
L441.374 381.888
L443.125 383.369
L444.875 383.369
L446.626 385.344
L448.376 386.331
L450.127 387.566
L451.878 387.319
L453.628 387.566
L455.379 388.8
L457.129 388.553
L458.88 388.8
L462.381 388.8
L464.132 388.553
L465.882 388.553
L467.633 388.8
L474.635 388.8
L476.386 388.553
L478.136 388.8
L518.4 388.8
L518.4 388.8" style="fill:none;stroke:#228b22;stroke-linecap:square;"/>
   </g>
   <g id="line2d_3">
    <path clip-path="url(#p7ff5b81e1d)" d="
M72 388.8
L89.5059 388.8
L91.2565 388.553
L93.0071 388.8
L94.7576 388.553
L96.5082 388.8
L98.2588 388.553
L100.009 388.8
L105.261 388.8
L107.012 388.553
L108.762 388.8
L110.513 388.553
L112.264 388.8
L128.019 388.8
L129.769 388.553
L131.52 388.8
L133.271 388.553
L135.021 388.8
L136.772 388.8
L138.522 388.553
L140.273 388.8
L142.024 388.059
L145.525 388.553
L147.275 388.553
L149.026 387.813
L150.776 388.306
L152.527 387.813
L154.278 388.059
L156.028 387.319
L157.779 388.059
L159.529 388.306
L161.28 387.566
L163.031 387.813
L164.781 387.566
L166.532 386.825
L168.282 387.813
L170.033 386.085
L171.784 385.838
L175.285 383.863
L177.035 383.616
L178.786 382.629
L180.536 381.147
L182.287 380.16
L184.038 379.419
L185.788 377.691
L187.539 376.21
L189.289 380.16
L191.04 379.419
L192.791 375.223
L194.541 374.482
L196.292 374.729
L198.042 375.963
L199.793 373.248
L201.544 370.286
L203.294 374.976
L205.045 372.014
L206.795 376.457
L208.546 375.47
L210.296 372.507
L212.047 371.767
L213.798 375.717
L215.548 371.273
L217.299 368.558
L219.049 373.742
L220.8 373.248
L222.551 374.482
L224.301 373.742
L226.052 374.235
L227.802 373.248
L229.553 374.976
L231.304 375.47
L233.054 371.767
L234.805 373.495
L236.555 374.976
L238.306 372.754
L240.056 375.223
L241.807 372.754
L243.558 372.014
L245.308 368.311
L247.059 369.792
L248.809 370.039
L250.56 365.842
L252.311 365.102
L254.061 370.286
L255.812 370.286
L257.562 367.817
L261.064 368.805
L262.814 365.102
L264.565 366.089
L266.315 368.311
L268.066 364.114
L269.816 368.805
L271.567 365.842
L273.318 365.349
L275.068 362.88
L276.819 362.88
L278.569 359.918
L280.32 361.399
L282.071 362.633
L283.821 360.905
L285.572 358.437
L287.322 357.449
L289.073 355.721
L290.824 358.93
L292.574 353.746
L296.075 341.65
L297.826 351.525
L299.576 349.303
L301.327 351.031
L303.078 351.771
L304.828 353.499
L306.579 344.613
L308.329 346.834
L310.08 350.043
L311.831 344.859
L313.581 346.587
L315.332 348.809
L317.082 345.6
L318.833 349.55
L320.584 350.784
L322.334 352.265
L324.085 350.043
L325.835 348.315
L327.586 359.177
L329.336 356.709
L331.087 359.424
L332.838 357.943
L334.588 354.24
L336.339 357.449
L338.089 355.721
L339.84 350.043
L341.591 355.474
L343.341 359.424
L345.092 353.746
L346.842 350.29
L348.593 347.328
L350.344 352.265
L352.094 341.897
L353.845 350.537
L355.595 354.734
L357.346 355.721
L359.096 361.646
L360.847 364.608
L362.598 364.855
L364.348 365.349
L366.099 361.893
L367.849 360.658
L369.6 368.311
L371.351 368.558
L373.101 368.064
L374.852 371.026
L376.602 371.52
L378.353 370.039
L380.104 374.235
L381.854 372.754
L383.605 372.261
L385.355 371.026
L387.106 368.064
L388.856 370.039
L390.607 371.52
L392.358 373.989
L394.108 371.767
L395.859 374.482
L397.609 374.729
L399.36 375.223
L401.111 378.185
L402.861 374.729
L404.612 380.901
L406.362 378.185
L408.113 378.679
L409.864 376.951
L411.614 380.16
L413.365 378.679
L415.115 377.938
L416.866 376.21
L418.616 380.901
L420.367 379.913
L422.118 381.394
L423.868 382.629
L425.619 378.432
L427.369 379.913
L429.12 381.147
L430.871 382.629
L432.621 379.666
L434.372 380.901
L436.122 380.407
L437.873 381.394
L439.624 382.875
L441.374 382.382
L443.125 384.357
L444.875 384.85
L446.626 382.382
L448.376 382.382
L450.127 384.11
L451.878 383.122
L453.628 382.875
L455.379 384.11
L457.129 382.135
L458.88 384.85
L460.631 381.394
L462.381 382.382
L465.882 385.838
L467.633 383.122
L469.384 387.072
L472.885 385.591
L476.386 387.072
L478.136 386.085
L479.887 387.813
L483.388 388.8
L486.889 388.8
L488.64 388.553
L490.391 388.8
L518.4 388.8
L518.4 388.8" style="fill:none;stroke:#ff0000;stroke-linecap:square;"/>
   </g>
   <g id="line2d_4">
    <path clip-path="url(#p7ff5b81e1d)" d="
M72 388.8
L73.7506 388.8
L75.5012 388.553
L77.2518 388.8
L80.7529 388.8
L82.5035 388.553
L84.2541 388.553
L86.0047 388.8
L87.7553 388.8
L89.5059 388.553
L91.2565 388.8
L93.0071 388.553
L94.7576 388.8
L115.765 388.8
L117.515 388.553
L119.266 388.8
L126.268 388.8
L128.019 388.553
L129.769 388.059
L131.52 388.8
L133.271 388.8
L135.021 388.553
L136.772 388.8
L140.273 388.8
L142.024 388.553
L143.774 388.553
L145.525 388.8
L147.275 388.553
L149.026 388.8
L150.776 388.8
L154.278 388.306
L156.028 388.8
L161.28 388.8
L163.031 388.306
L164.781 388.8
L166.532 387.319
L168.282 387.319
L170.033 387.813
L171.784 387.072
L173.534 384.603
L175.285 386.331
L177.035 387.813
L178.786 386.825
L180.536 387.566
L182.287 384.85
L184.038 386.825
L185.788 383.616
L187.539 387.566
L189.289 386.331
L191.04 384.603
L192.791 386.578
L194.541 386.331
L196.292 384.603
L198.042 383.616
L199.793 384.85
L201.544 384.85
L203.294 382.629
L205.045 384.11
L206.795 378.679
L208.546 382.382
L210.296 384.603
L212.047 380.16
L213.798 381.147
L215.548 378.432
L217.299 375.223
L219.049 381.641
L220.8 376.951
L222.551 376.951
L224.301 374.729
L226.052 377.445
L227.802 376.704
L229.553 376.951
L231.304 376.951
L233.054 377.445
L234.805 380.654
L236.555 376.951
L238.306 375.717
L240.056 378.432
L241.807 375.223
L243.558 375.47
L245.308 378.185
L247.059 377.938
L248.809 372.261
L250.56 371.273
L252.311 372.507
L254.061 372.014
L255.812 373.001
L257.562 375.223
L259.313 374.976
L261.064 376.457
L262.814 371.026
L264.565 375.963
L266.315 373.495
L268.066 370.286
L269.816 378.185
L271.567 376.951
L273.318 374.235
L275.068 375.223
L276.819 376.704
L278.569 377.445
L280.32 376.457
L282.071 373.742
L283.821 376.21
L285.572 377.445
L287.322 377.691
L289.073 375.223
L290.824 377.691
L292.574 375.223
L294.325 376.704
L296.075 374.976
L297.826 376.704
L299.576 371.026
L301.327 375.223
L303.078 373.248
L304.828 372.754
L306.579 378.185
L308.329 371.273
L310.08 373.742
L311.831 371.767
L313.581 365.349
L315.332 371.767
L317.082 371.026
L318.833 366.089
L320.584 369.298
L322.334 367.077
L324.085 366.336
L325.835 363.127
L327.586 360.658
L329.336 353.993
L331.087 360.658
L332.838 352.265
L334.588 365.349
L336.339 356.709
L338.089 353.746
L339.84 354.487
L341.591 352.759
L343.341 345.847
L345.092 350.784
L346.842 350.537
L348.593 347.822
L350.344 339.922
L352.094 348.315
L353.845 341.403
L355.595 340.663
L357.346 336.466
L359.096 338.441
L360.847 335.726
L362.598 341.403
L364.348 338.194
L366.099 328.814
L367.849 331.776
L369.6 322.889
L371.351 336.466
L373.101 331.282
L374.852 336.466
L376.602 335.479
L378.353 339.429
L380.104 328.32
L381.854 339.675
L383.605 337.454
L385.355 337.454
L387.106 333.257
L388.856 345.353
L390.607 338.194
L392.358 333.504
L394.108 338.935
L395.859 343.378
L397.609 350.29
L399.36 356.709
L401.111 360.165
L402.861 362.386
L404.612 360.905
L406.362 355.474
L408.113 363.127
L409.864 360.905
L411.614 360.165
L413.365 363.621
L416.866 370.779
L418.616 372.507
L420.367 372.014
L422.118 376.704
L423.868 377.938
L425.619 375.963
L427.369 376.951
L429.12 378.679
L430.871 376.457
L432.621 377.938
L434.372 378.679
L436.122 381.147
L437.873 382.382
L439.624 381.641
L441.374 380.16
L443.125 378.926
L444.875 384.603
L446.626 379.666
L448.376 379.913
L450.127 382.629
L451.878 382.875
L453.628 383.616
L455.379 387.319
L457.129 386.825
L458.88 388.059
L460.631 388.553
L462.381 388.553
L464.132 388.8
L465.882 388.8
L467.633 388.553
L469.384 388.8
L471.134 388.553
L472.885 388.8
L474.635 388.8
L476.386 388.553
L478.136 388.8
L518.4 388.8
L518.4 388.8" style="fill:none;stroke:#696969;stroke-linecap:square;"/>
   </g>
   <g id="line2d_5">
    <path clip-path="url(#p7ff5b81e1d)" d="
M72 388.8
L226.052 388.8
L227.802 388.059
L229.553 386.825
L231.304 378.926
L233.054 366.583
L234.805 355.721
L236.555 353.006
L238.306 351.771
L241.807 313.755
L243.558 292.032
L245.308 280.677
L247.059 270.309
L248.809 221.431
L250.56 208.594
L252.311 209.582
L254.061 209.829
L255.812 221.431
L257.562 231.058
L259.313 208.594
L261.064 257.225
L262.814 278.208
L264.565 293.266
L266.315 287.835
L268.066 305.856
L269.816 315.237
L271.567 330.295
L273.318 316.471
L275.068 324.864
L276.819 327.086
L278.569 330.048
L280.32 331.529
L282.071 318.446
L283.821 325.605
L285.572 335.232
L287.322 336.96
L289.073 335.726
L290.824 335.232
L292.574 333.998
L294.325 345.6
L296.075 341.403
L297.826 349.797
L299.576 349.55
L301.327 363.621
L304.828 377.198
L306.579 382.875
L308.329 384.357
L310.08 386.825
L311.831 388.059
L313.581 388.306
L315.332 388.306
L317.082 388.553
L318.833 388.553
L320.584 388.8
L518.4 388.8
L518.4 388.8" style="fill:none;stroke:#ff00ff;stroke-linecap:square;"/>
   </g>
   <g id="line2d_6">
    <path clip-path="url(#p7ff5b81e1d)" d="
M72 388.8
L297.826 388.8
L299.576 388.553
L303.078 388.553
L304.828 388.8
L306.579 388.553
L308.329 388.553
L310.08 387.566
L311.831 387.319
L313.581 386.825
L315.332 385.344
L317.082 385.591
L318.833 383.369
L320.584 381.394
L322.334 381.888
L325.835 380.407
L327.586 372.014
L329.336 375.223
L331.087 368.064
L332.838 369.051
L334.588 363.867
L336.339 359.424
L338.089 359.671
L341.591 354.734
L343.341 351.031
L345.092 334.245
L346.842 342.391
L348.593 332.023
L350.344 318.199
L352.094 317.211
L353.845 287.095
L355.595 290.551
L357.346 292.526
L359.096 266.112
L362.598 232.539
L364.348 195.511
L366.099 165.394
L367.849 157.742
L369.6 193.783
L371.351 197.486
L373.101 220.69
L374.852 280.677
L376.602 292.526
L378.353 305.609
L380.104 314.002
L381.854 309.559
L385.355 325.111
L387.106 331.529
L388.856 347.081
L390.607 356.215
L392.358 352.265
L394.108 357.696
L395.859 360.658
L397.609 366.336
L399.36 371.52
L401.111 378.185
L402.861 379.419
L404.612 381.641
L406.362 379.419
L408.113 383.122
L409.864 385.097
L411.614 388.059
L413.365 388.8
L518.4 388.8
L518.4 388.8" style="fill:none;stroke:#ffff00;stroke-linecap:square;"/>
   </g>
   <g id="line2d_7">
    <path clip-path="url(#p7ff5b81e1d)" d="
M72 388.8
L73.7506 388.8
L75.5012 388.8
L77.2518 388.553
L79.0024 388.8
L80.7529 388.306
L82.5035 388.8
L84.2541 388.553
L86.0047 388.8
L87.7553 388.553
L89.5059 388.8
L93.0071 388.306
L94.7576 386.825
L96.5082 387.072
L98.2588 380.654
L100.009 380.654
L101.76 373.248
L103.511 376.457
L105.261 360.658
L107.012 346.834
L108.762 354.981
L110.513 338.935
L112.264 326.345
L114.014 320.914
L115.765 331.529
L117.515 318.199
L119.266 312.027
L121.016 304.869
L122.767 318.693
L124.518 303.634
L126.268 308.078
L128.019 312.027
L129.769 287.835
L131.52 289.07
L133.271 224.64
L135.021 258.213
L136.772 147.621
L138.522 88.8686
L140.273 97.2617
L142.024 67.8857
L143.774 77.2663
L145.525 108.864
L147.275 212.05
L149.026 348.809
L150.776 375.223
L152.527 384.603
L154.278 386.825
L156.028 388.8
L157.779 388.553
L159.529 388.8
L166.532 388.8
L168.282 388.553
L170.033 388.553
L171.784 388.8
L518.4 388.8
L518.4 388.8" style="fill:none;stroke:#8a2be2;stroke-linecap:square;"/>
   </g>
   <g id="line2d_8">
    <path clip-path="url(#p7ff5b81e1d)" d="
M72 388.8
L157.779 388.8
L159.529 388.553
L161.28 388.553
L163.031 388.8
L166.532 388.306
L168.282 388.553
L170.033 388.059
L171.784 388.059
L173.534 388.553
L175.285 387.566
L177.035 387.566
L178.786 388.059
L180.536 386.825
L182.287 388.8
L184.038 387.319
L185.788 386.085
L187.539 386.825
L189.289 385.838
L192.791 385.344
L194.541 385.344
L196.292 384.11
L198.042 384.11
L199.793 382.629
L201.544 382.135
L203.294 384.85
L205.045 382.135
L206.795 382.135
L208.546 382.382
L210.296 379.913
L212.047 379.173
L213.798 383.369
L215.548 380.901
L217.299 379.173
L219.049 379.666
L220.8 375.223
L222.551 374.976
L224.301 371.767
L226.052 367.077
L227.802 372.754
L229.553 368.311
L231.304 370.039
L233.054 372.754
L234.805 371.767
L236.555 368.558
L238.306 368.805
L240.056 372.507
L241.807 372.261
L243.558 369.051
L245.308 368.805
L247.059 369.051
L248.809 370.039
L250.56 369.792
L252.311 366.83
L254.061 361.893
L255.812 367.57
L257.562 362.139
L259.313 363.621
L261.064 367.57
L264.565 365.102
L266.315 365.102
L268.066 370.286
L269.816 359.177
L271.567 362.633
L273.318 359.918
L275.068 353.993
L276.819 354.487
L278.569 352.759
L280.32 343.131
L282.071 351.031
L283.821 346.587
L285.572 342.885
L287.322 337.947
L289.073 348.562
L290.824 334.985
L292.574 350.537
L294.325 344.366
L296.075 336.96
L297.826 355.474
L299.576 341.403
L301.327 349.797
L303.078 340.91
L304.828 346.341
L306.579 347.081
L308.329 345.353
L310.08 342.885
L311.831 343.872
L313.581 350.537
L315.332 344.119
L317.082 351.525
L318.833 340.663
L320.584 348.069
L322.334 352.759
L324.085 344.613
L325.835 349.303
L327.586 349.797
L329.336 353.006
L331.087 352.265
L332.838 346.834
L334.588 354.734
L336.339 353.499
L338.089 348.315
L339.84 356.215
L341.591 361.152
L343.341 358.683
L345.092 354.24
L346.842 358.19
L348.593 356.709
L350.344 356.709
L352.094 361.646
L353.845 355.474
L355.595 359.918
L357.346 360.165
L360.847 365.102
L362.598 361.893
L364.348 364.855
L366.099 361.399
L367.849 363.374
L369.6 368.311
L371.351 364.855
L373.101 364.855
L374.852 366.336
L376.602 368.558
L378.353 367.323
L380.104 370.533
L381.854 367.817
L383.605 370.779
L385.355 369.298
L387.106 371.767
L388.856 369.545
L390.607 370.779
L392.358 364.855
L394.108 375.223
L395.859 367.077
L397.609 372.261
L399.36 375.47
L401.111 368.064
L402.861 376.457
L404.612 375.717
L406.362 372.507
L408.113 376.457
L409.864 378.679
L411.614 376.951
L413.365 375.47
L415.115 379.419
L416.866 378.926
L418.616 380.901
L420.367 380.16
L422.118 381.394
L423.868 382.135
L425.619 383.122
L427.369 379.666
L429.12 382.629
L430.871 383.863
L432.621 384.85
L434.372 384.11
L436.122 385.097
L437.873 385.344
L439.624 385.344
L441.374 385.097
L443.125 385.097
L444.875 386.825
L446.626 385.591
L448.376 388.306
L450.127 386.578
L451.878 387.566
L453.628 386.578
L455.379 387.072
L457.129 388.059
L458.88 386.825
L460.631 387.319
L462.381 387.319
L464.132 387.566
L465.882 387.072
L467.633 387.319
L469.384 388.306
L471.134 388.059
L472.885 388.059
L474.635 387.566
L476.386 388.059
L478.136 388.059
L479.887 387.566
L481.638 387.566
L483.388 388.306
L485.139 386.825
L486.889 388.059
L488.64 388.059
L490.391 388.553
L492.141 387.813
L493.892 387.813
L495.642 388.059
L497.393 387.319
L499.144 388.059
L500.894 387.566
L502.645 388.059
L504.395 387.566
L506.146 388.306
L507.896 387.813
L509.647 387.566
L511.398 388.553
L513.148 386.578
L514.899 388.8
L518.4 388.8
L518.4 388.8" style="fill:none;stroke:#00ffff;stroke-linecap:square;"/>
   </g>
   <g id="line2d_9">
    <path clip-path="url(#p7ff5b81e1d)" d="
M72 388.8
L89.5059 388.8
L91.2565 388.553
L93.0071 388.8
L105.261 388.8
L107.012 388.553
L108.762 388.8
L110.513 388.553
L112.264 388.8
L128.019 388.8
L129.769 388.553
L131.52 388.8
L133.271 388.553
L135.021 388.8
L154.278 388.8
L156.028 388.306
L157.779 388.553
L164.781 388.553
L166.532 388.059
L168.282 388.8
L170.033 388.306
L171.784 388.306
L173.534 388.059
L175.285 387.319
L177.035 387.566
L178.786 386.578
L180.536 387.319
L184.038 386.825
L185.788 386.331
L187.539 385.344
L191.04 387.319
L192.791 386.578
L194.541 385.591
L196.292 386.825
L198.042 385.591
L199.793 385.097
L201.544 383.122
L203.294 385.097
L205.045 383.616
L208.546 385.097
L210.296 381.888
L212.047 382.135
L213.798 381.147
L215.548 381.888
L217.299 376.951
L219.049 380.16
L220.8 379.419
L226.052 375.717
L227.802 377.938
L229.553 377.445
L231.304 377.198
L233.054 374.729
L234.805 377.445
L236.555 375.717
L238.306 375.47
L240.056 377.691
L241.807 376.951
L243.558 373.742
L245.308 375.47
L247.059 372.754
L248.809 373.742
L250.56 373.248
L252.311 371.026
L254.061 372.507
L255.812 374.235
L257.562 368.064
L259.313 375.47
L261.064 374.482
L262.814 371.273
L264.565 374.235
L266.315 373.989
L268.066 377.445
L269.816 374.976
L271.567 373.495
L273.318 373.495
L275.068 374.729
L276.819 373.989
L278.569 374.235
L280.32 373.495
L282.071 377.445
L283.821 375.223
L285.572 376.457
L287.322 374.235
L289.073 375.47
L290.824 373.989
L292.574 377.445
L294.325 376.457
L296.075 377.691
L297.826 379.173
L299.576 376.457
L301.327 374.482
L303.078 375.223
L304.828 373.001
L306.579 373.001
L308.329 376.21
L310.08 373.248
L311.831 373.248
L313.581 368.064
L315.332 372.754
L317.082 373.495
L318.833 366.336
L320.584 369.298
L322.334 367.57
L324.085 366.583
L325.835 365.842
L327.586 366.336
L329.336 359.177
L331.087 359.671
L332.838 357.696
L334.588 357.696
L336.339 354.981
L338.089 355.721
L339.84 360.165
L341.591 353.253
L345.092 354.24
L346.842 340.416
L348.593 350.29
L350.344 354.981
L352.094 348.809
L353.845 345.353
L355.595 347.328
L357.346 338.441
L359.096 352.018
L360.847 350.29
L362.598 340.91
L364.348 333.998
L366.099 341.65
L367.849 336.713
L369.6 338.194
L371.351 338.935
L373.101 324.617
L374.852 332.023
L376.602 333.751
L378.353 329.307
L380.104 331.282
L381.854 331.529
L383.605 339.922
L385.355 335.232
L387.106 331.529
L388.856 341.897
L390.607 340.169
L392.358 340.91
L394.108 340.416
L395.859 336.466
L397.609 340.91
L399.36 347.575
L401.111 345.847
L402.861 350.29
L404.612 360.165
L406.362 362.139
L408.113 365.842
L409.864 364.361
L411.614 362.386
L413.365 365.102
L415.115 363.621
L416.866 365.595
L418.616 367.323
L420.367 372.507
L422.118 369.051
L423.868 371.026
L425.619 374.976
L427.369 375.717
L429.12 376.951
L430.871 378.679
L432.621 377.938
L434.372 380.407
L436.122 380.407
L437.873 380.901
L439.624 382.135
L441.374 382.135
L443.125 383.616
L444.875 384.85
L446.626 382.135
L448.376 382.382
L450.127 383.863
L451.878 382.875
L453.628 382.629
L455.379 384.11
L457.129 382.135
L458.88 384.85
L460.631 381.394
L462.381 382.382
L465.882 385.838
L467.633 383.122
L469.384 387.072
L472.885 385.591
L476.386 387.072
L478.136 386.085
L479.887 387.813
L483.388 388.8
L486.889 388.8
L488.64 388.553
L490.391 388.8
L518.4 388.8
L518.4 388.8" style="fill:none;stroke:#ffa500;stroke-linecap:square;"/>
   </g>
   <g id="patch_3">
    <path d="
M72 43.2
L518.4 43.2" style="fill:none;stroke:#000000;stroke-linecap:square;stroke-linejoin:miter;"/>
   </g>
   <g id="patch_4">
    <path d="
M518.4 388.8
L518.4 43.2" style="fill:none;stroke:#000000;stroke-linecap:square;stroke-linejoin:miter;"/>
   </g>
   <g id="patch_5">
    <path d="
M72 388.8
L518.4 388.8" style="fill:none;stroke:#000000;stroke-linecap:square;stroke-linejoin:miter;"/>
   </g>
   <g id="patch_6">
    <path d="
M72 388.8
L72 43.2" style="fill:none;stroke:#000000;stroke-linecap:square;stroke-linejoin:miter;"/>
   </g>
   <g id="matplotlib.axis_1">
    <g id="xtick_1">
     <g id="line2d_10">
      <defs>
       <path d="
M0 0
L0 -4" id="m93b0483c22" style="stroke:#000000;stroke-width:0.5;"/>
      </defs>
      <g>
       <use style="stroke:#000000;stroke-width:0.5;" x="72.0" xlink:href="#m93b0483c22" y="388.8"/>
      </g>
     </g>
     <g id="line2d_11">
      <defs>
       <path d="
M0 0
L0 4" id="m741efc42ff" style="stroke:#000000;stroke-width:0.5;"/>
      </defs>
      <g>
       <use style="stroke:#000000;stroke-width:0.5;" x="72.0" xlink:href="#m741efc42ff" y="43.2"/>
      </g>
     </g>
     <g id="text_1">
      <!-- 0 -->
      <defs>
       <path d="
M31.7812 66.4062
Q24.1719 66.4062 20.3281 58.9062
Q16.5 51.4219 16.5 36.375
Q16.5 21.3906 20.3281 13.8906
Q24.1719 6.39062 31.7812 6.39062
Q39.4531 6.39062 43.2812 13.8906
Q47.125 21.3906 47.125 36.375
Q47.125 51.4219 43.2812 58.9062
Q39.4531 66.4062 31.7812 66.4062
M31.7812 74.2188
Q44.0469 74.2188 50.5156 64.5156
Q56.9844 54.8281 56.9844 36.375
Q56.9844 17.9688 50.5156 8.26562
Q44.0469 -1.42188 31.7812 -1.42188
Q19.5312 -1.42188 13.0625 8.26562
Q6.59375 17.9688 6.59375 36.375
Q6.59375 54.8281 13.0625 64.5156
Q19.5312 74.2188 31.7812 74.2188" id="DejaVuSans-30"/>
      </defs>
      <g transform="translate(68.9765625 401.918125)scale(0.12 -0.12)">
       <use xlink:href="#DejaVuSans-30"/>
      </g>
     </g>
    </g>
    <g id="xtick_2">
     <g id="line2d_12">
      <g>
       <use style="stroke:#000000;stroke-width:0.5;" x="159.529411765" xlink:href="#m93b0483c22" y="388.8"/>
      </g>
     </g>
     <g id="line2d_13">
      <g>
       <use style="stroke:#000000;stroke-width:0.5;" x="159.529411765" xlink:href="#m741efc42ff" y="43.2"/>
      </g>
     </g>
     <g id="text_2">
      <!-- 50 -->
      <defs>
       <path d="
M10.7969 72.9062
L49.5156 72.9062
L49.5156 64.5938
L19.8281 64.5938
L19.8281 46.7344
Q21.9688 47.4688 24.1094 47.8281
Q26.2656 48.1875 28.4219 48.1875
Q40.625 48.1875 47.75 41.5
Q54.8906 34.8125 54.8906 23.3906
Q54.8906 11.625 47.5625 5.09375
Q40.2344 -1.42188 26.9062 -1.42188
Q22.3125 -1.42188 17.5469 -0.640625
Q12.7969 0.140625 7.71875 1.70312
L7.71875 11.625
Q12.1094 9.23438 16.7969 8.0625
Q21.4844 6.89062 26.7031 6.89062
Q35.1562 6.89062 40.0781 11.3281
Q45.0156 15.7656 45.0156 23.3906
Q45.0156 31 40.0781 35.4375
Q35.1562 39.8906 26.7031 39.8906
Q22.75 39.8906 18.8125 39.0156
Q14.8906 38.1406 10.7969 36.2812
z
" id="DejaVuSans-35"/>
      </defs>
      <g transform="translate(152.755974265 401.918125)scale(0.12 -0.12)">
       <use xlink:href="#DejaVuSans-35"/>
       <use x="63.623046875" xlink:href="#DejaVuSans-30"/>
      </g>
     </g>
    </g>
    <g id="xtick_3">
     <g id="line2d_14">
      <g>
       <use style="stroke:#000000;stroke-width:0.5;" x="247.058823529" xlink:href="#m93b0483c22" y="388.8"/>
      </g>
     </g>
     <g id="line2d_15">
      <g>
       <use style="stroke:#000000;stroke-width:0.5;" x="247.058823529" xlink:href="#m741efc42ff" y="43.2"/>
      </g>
     </g>
     <g id="text_3">
      <!-- 100 -->
      <defs>
       <path d="
M12.4062 8.29688
L28.5156 8.29688
L28.5156 63.9219
L10.9844 60.4062
L10.9844 69.3906
L28.4219 72.9062
L38.2812 72.9062
L38.2812 8.29688
L54.3906 8.29688
L54.3906 0
L12.4062 0
z
" id="DejaVuSans-31"/>
      </defs>
      <g transform="translate(236.663823529 401.918125)scale(0.12 -0.12)">
       <use xlink:href="#DejaVuSans-31"/>
       <use x="63.623046875" xlink:href="#DejaVuSans-30"/>
       <use x="127.24609375" xlink:href="#DejaVuSans-30"/>
      </g>
     </g>
    </g>
    <g id="xtick_4">
     <g id="line2d_16">
      <g>
       <use style="stroke:#000000;stroke-width:0.5;" x="334.588235294" xlink:href="#m93b0483c22" y="388.8"/>
      </g>
     </g>
     <g id="line2d_17">
      <g>
       <use style="stroke:#000000;stroke-width:0.5;" x="334.588235294" xlink:href="#m741efc42ff" y="43.2"/>
      </g>
     </g>
     <g id="text_4">
      <!-- 150 -->
      <g transform="translate(324.193235294 401.918125)scale(0.12 -0.12)">
       <use xlink:href="#DejaVuSans-31"/>
       <use x="63.623046875" xlink:href="#DejaVuSans-35"/>
       <use x="127.24609375" xlink:href="#DejaVuSans-30"/>
      </g>
     </g>
    </g>
    <g id="xtick_5">
     <g id="line2d_18">
      <g>
       <use style="stroke:#000000;stroke-width:0.5;" x="422.117647059" xlink:href="#m93b0483c22" y="388.8"/>
      </g>
     </g>
     <g id="line2d_19">
      <g>
       <use style="stroke:#000000;stroke-width:0.5;" x="422.117647059" xlink:href="#m741efc42ff" y="43.2"/>
      </g>
     </g>
     <g id="text_5">
      <!-- 200 -->
      <defs>
       <path d="
M19.1875 8.29688
L53.6094 8.29688
L53.6094 0
L7.32812 0
L7.32812 8.29688
Q12.9375 14.1094 22.625 23.8906
Q32.3281 33.6875 34.8125 36.5312
Q39.5469 41.8438 41.4219 45.5312
Q43.3125 49.2188 43.3125 52.7812
Q43.3125 58.5938 39.2344 62.25
Q35.1562 65.9219 28.6094 65.9219
Q23.9688 65.9219 18.8125 64.3125
Q13.6719 62.7031 7.8125 59.4219
L7.8125 69.3906
Q13.7656 71.7812 18.9375 73
Q24.125 74.2188 28.4219 74.2188
Q39.75 74.2188 46.4844 68.5469
Q53.2188 62.8906 53.2188 53.4219
Q53.2188 48.9219 51.5312 44.8906
Q49.8594 40.875 45.4062 35.4062
Q44.1875 33.9844 37.6406 27.2188
Q31.1094 20.4531 19.1875 8.29688" id="DejaVuSans-32"/>
      </defs>
      <g transform="translate(411.503272059 401.918125)scale(0.12 -0.12)">
       <use xlink:href="#DejaVuSans-32"/>
       <use x="63.623046875" xlink:href="#DejaVuSans-30"/>
       <use x="127.24609375" xlink:href="#DejaVuSans-30"/>
      </g>
     </g>
    </g>
    <g id="xtick_6">
     <g id="line2d_20">
      <g>
       <use style="stroke:#000000;stroke-width:0.5;" x="509.647058824" xlink:href="#m93b0483c22" y="388.8"/>
      </g>
     </g>
     <g id="line2d_21">
      <g>
       <use style="stroke:#000000;stroke-width:0.5;" x="509.647058824" xlink:href="#m741efc42ff" y="43.2"/>
      </g>
     </g>
     <g id="text_6">
      <!-- 250 -->
      <g transform="translate(499.032683824 401.918125)scale(0.12 -0.12)">
       <use xlink:href="#DejaVuSans-32"/>
       <use x="63.623046875" xlink:href="#DejaVuSans-35"/>
       <use x="127.24609375" xlink:href="#DejaVuSans-30"/>
      </g>
     </g>
    </g>
   </g>
   <g id="matplotlib.axis_2">
    <g id="ytick_1">
     <g id="line2d_22">
      <defs>
       <path d="
M0 0
L4 0" id="m728421d6d4" style="stroke:#000000;stroke-width:0.5;"/>
      </defs>
      <g>
       <use style="stroke:#000000;stroke-width:0.5;" x="72.0" xlink:href="#m728421d6d4" y="388.8"/>
      </g>
     </g>
     <g id="line2d_23">
      <defs>
       <path d="
M0 0
L-4 0" id="mcb0005524f" style="stroke:#000000;stroke-width:0.5;"/>
      </defs>
      <g>
       <use style="stroke:#000000;stroke-width:0.5;" x="518.4" xlink:href="#mcb0005524f" y="388.8"/>
      </g>
     </g>
     <g id="text_7">
      <!-- 0 -->
      <g transform="translate(61.953125 392.11125)scale(0.12 -0.12)">
       <use xlink:href="#DejaVuSans-30"/>
      </g>
     </g>
    </g>
    <g id="ytick_2">
     <g id="line2d_24">
      <g>
       <use style="stroke:#000000;stroke-width:0.5;" x="72.0" xlink:href="#m728421d6d4" y="339.428571429"/>
      </g>
     </g>
     <g id="line2d_25">
      <g>
       <use style="stroke:#000000;stroke-width:0.5;" x="518.4" xlink:href="#mcb0005524f" y="339.428571429"/>
      </g>
     </g>
     <g id="text_8">
      <!-- 200 -->
      <g transform="translate(46.77125 342.739821429)scale(0.12 -0.12)">
       <use xlink:href="#DejaVuSans-32"/>
       <use x="63.623046875" xlink:href="#DejaVuSans-30"/>
       <use x="127.24609375" xlink:href="#DejaVuSans-30"/>
      </g>
     </g>
    </g>
    <g id="ytick_3">
     <g id="line2d_26">
      <g>
       <use style="stroke:#000000;stroke-width:0.5;" x="72.0" xlink:href="#m728421d6d4" y="290.057142857"/>
      </g>
     </g>
     <g id="line2d_27">
      <g>
       <use style="stroke:#000000;stroke-width:0.5;" x="518.4" xlink:href="#mcb0005524f" y="290.057142857"/>
      </g>
     </g>
     <g id="text_9">
      <!-- 400 -->
      <defs>
       <path d="
M37.7969 64.3125
L12.8906 25.3906
L37.7969 25.3906
z

M35.2031 72.9062
L47.6094 72.9062
L47.6094 25.3906
L58.0156 25.3906
L58.0156 17.1875
L47.6094 17.1875
L47.6094 0
L37.7969 0
L37.7969 17.1875
L4.89062 17.1875
L4.89062 26.7031
z
" id="DejaVuSans-34"/>
      </defs>
      <g transform="translate(46.47875 293.368392857)scale(0.12 -0.12)">
       <use xlink:href="#DejaVuSans-34"/>
       <use x="63.623046875" xlink:href="#DejaVuSans-30"/>
       <use x="127.24609375" xlink:href="#DejaVuSans-30"/>
      </g>
     </g>
    </g>
    <g id="ytick_4">
     <g id="line2d_28">
      <g>
       <use style="stroke:#000000;stroke-width:0.5;" x="72.0" xlink:href="#m728421d6d4" y="240.685714286"/>
      </g>
     </g>
     <g id="line2d_29">
      <g>
       <use style="stroke:#000000;stroke-width:0.5;" x="518.4" xlink:href="#mcb0005524f" y="240.685714286"/>
      </g>
     </g>
     <g id="text_10">
      <!-- 600 -->
      <defs>
       <path d="
M33.0156 40.375
Q26.375 40.375 22.4844 35.8281
Q18.6094 31.2969 18.6094 23.3906
Q18.6094 15.5312 22.4844 10.9531
Q26.375 6.39062 33.0156 6.39062
Q39.6562 6.39062 43.5312 10.9531
Q47.4062 15.5312 47.4062 23.3906
Q47.4062 31.2969 43.5312 35.8281
Q39.6562 40.375 33.0156 40.375
M52.5938 71.2969
L52.5938 62.3125
Q48.875 64.0625 45.0938 64.9844
Q41.3125 65.9219 37.5938 65.9219
Q27.8281 65.9219 22.6719 59.3281
Q17.5312 52.7344 16.7969 39.4062
Q19.6719 43.6562 24.0156 45.9219
Q28.375 48.1875 33.5938 48.1875
Q44.5781 48.1875 50.9531 41.5156
Q57.3281 34.8594 57.3281 23.3906
Q57.3281 12.1562 50.6875 5.35938
Q44.0469 -1.42188 33.0156 -1.42188
Q20.3594 -1.42188 13.6719 8.26562
Q6.98438 17.9688 6.98438 36.375
Q6.98438 53.6562 15.1875 63.9375
Q23.3906 74.2188 37.2031 74.2188
Q40.9219 74.2188 44.7031 73.4844
Q48.4844 72.75 52.5938 71.2969" id="DejaVuSans-36"/>
      </defs>
      <g transform="translate(46.73 243.996964286)scale(0.12 -0.12)">
       <use xlink:href="#DejaVuSans-36"/>
       <use x="63.623046875" xlink:href="#DejaVuSans-30"/>
       <use x="127.24609375" xlink:href="#DejaVuSans-30"/>
      </g>
     </g>
    </g>
    <g id="ytick_5">
     <g id="line2d_30">
      <g>
       <use style="stroke:#000000;stroke-width:0.5;" x="72.0" xlink:href="#m728421d6d4" y="191.314285714"/>
      </g>
     </g>
     <g id="line2d_31">
      <g>
       <use style="stroke:#000000;stroke-width:0.5;" x="518.4" xlink:href="#mcb0005524f" y="191.314285714"/>
      </g>
     </g>
     <g id="text_11">
      <!-- 800 -->
      <defs>
       <path d="
M31.7812 34.625
Q24.75 34.625 20.7188 30.8594
Q16.7031 27.0938 16.7031 20.5156
Q16.7031 13.9219 20.7188 10.1562
Q24.75 6.39062 31.7812 6.39062
Q38.8125 6.39062 42.8594 10.1719
Q46.9219 13.9688 46.9219 20.5156
Q46.9219 27.0938 42.8906 30.8594
Q38.875 34.625 31.7812 34.625
M21.9219 38.8125
Q15.5781 40.375 12.0312 44.7188
Q8.5 49.0781 8.5 55.3281
Q8.5 64.0625 14.7188 69.1406
Q20.9531 74.2188 31.7812 74.2188
Q42.6719 74.2188 48.875 69.1406
Q55.0781 64.0625 55.0781 55.3281
Q55.0781 49.0781 51.5312 44.7188
Q48 40.375 41.7031 38.8125
Q48.8281 37.1562 52.7969 32.3125
Q56.7812 27.4844 56.7812 20.5156
Q56.7812 9.90625 50.3125 4.23438
Q43.8438 -1.42188 31.7812 -1.42188
Q19.7344 -1.42188 13.25 4.23438
Q6.78125 9.90625 6.78125 20.5156
Q6.78125 27.4844 10.7812 32.3125
Q14.7969 37.1562 21.9219 38.8125
M18.3125 54.3906
Q18.3125 48.7344 21.8438 45.5625
Q25.3906 42.3906 31.7812 42.3906
Q38.1406 42.3906 41.7188 45.5625
Q45.3125 48.7344 45.3125 54.3906
Q45.3125 60.0625 41.7188 63.2344
Q38.1406 66.4062 31.7812 66.4062
Q25.3906 66.4062 21.8438 63.2344
Q18.3125 60.0625 18.3125 54.3906" id="DejaVuSans-38"/>
      </defs>
      <g transform="translate(46.705625 194.625535714)scale(0.12 -0.12)">
       <use xlink:href="#DejaVuSans-38"/>
       <use x="63.623046875" xlink:href="#DejaVuSans-30"/>
       <use x="127.24609375" xlink:href="#DejaVuSans-30"/>
      </g>
     </g>
    </g>
    <g id="ytick_6">
     <g id="line2d_32">
      <g>
       <use style="stroke:#000000;stroke-width:0.5;" x="72.0" xlink:href="#m728421d6d4" y="141.942857143"/>
      </g>
     </g>
     <g id="line2d_33">
      <g>
       <use style="stroke:#000000;stroke-width:0.5;" x="518.4" xlink:href="#mcb0005524f" y="141.942857143"/>
      </g>
     </g>
     <g id="text_12">
      <!-- 1000 -->
      <g transform="translate(39.575 145.254107143)scale(0.12 -0.12)">
       <use xlink:href="#DejaVuSans-31"/>
       <use x="63.623046875" xlink:href="#DejaVuSans-30"/>
       <use x="127.24609375" xlink:href="#DejaVuSans-30"/>
       <use x="190.869140625" xlink:href="#DejaVuSans-30"/>
      </g>
     </g>
    </g>
    <g id="ytick_7">
     <g id="line2d_34">
      <g>
       <use style="stroke:#000000;stroke-width:0.5;" x="72.0" xlink:href="#m728421d6d4" y="92.5714285714"/>
      </g>
     </g>
     <g id="line2d_35">
      <g>
       <use style="stroke:#000000;stroke-width:0.5;" x="518.4" xlink:href="#mcb0005524f" y="92.5714285714"/>
      </g>
     </g>
     <g id="text_13">
      <!-- 1200 -->
      <g transform="translate(39.575 95.8826785714)scale(0.12 -0.12)">
       <use xlink:href="#DejaVuSans-31"/>
       <use x="63.623046875" xlink:href="#DejaVuSans-32"/>
       <use x="127.24609375" xlink:href="#DejaVuSans-30"/>
       <use x="190.869140625" xlink:href="#DejaVuSans-30"/>
      </g>
     </g>
    </g>
    <g id="ytick_8">
     <g id="line2d_36">
      <g>
       <use style="stroke:#000000;stroke-width:0.5;" x="72.0" xlink:href="#m728421d6d4" y="43.2"/>
      </g>
     </g>
     <g id="line2d_37">
      <g>
       <use style="stroke:#000000;stroke-width:0.5;" x="518.4" xlink:href="#mcb0005524f" y="43.2"/>
      </g>
     </g>
     <g id="text_14">
      <!-- 1400 -->
      <g transform="translate(39.575 46.51125)scale(0.12 -0.12)">
       <use xlink:href="#DejaVuSans-31"/>
       <use x="63.623046875" xlink:href="#DejaVuSans-34"/>
       <use x="127.24609375" xlink:href="#DejaVuSans-30"/>
       <use x="190.869140625" xlink:href="#DejaVuSans-30"/>
      </g>
     </g>
    </g>
   </g>
   <g id="legend_1">
    <g id="patch_7">
     <path d="
M350.233 244.948
L511.2 244.948
L511.2 50.4
L350.233 50.4
z
" style="fill:#ffffff;stroke:#000000;stroke-linejoin:miter;"/>
    </g>
    <g id="line2d_38">
     <path d="
M360.313 62.0617
L380.473 62.0617" style="fill:none;stroke:#0000ff;stroke-linecap:square;"/>
    </g>
    <g id="line2d_39"/>
    <g id="text_15">
     <!-- blue -->
     <defs>
      <path d="
M8.5 21.5781
L8.5 54.6875
L17.4844 54.6875
L17.4844 21.9219
Q17.4844 14.1562 20.5 10.2656
Q23.5312 6.39062 29.5938 6.39062
Q36.8594 6.39062 41.0781 11.0312
Q45.3125 15.6719 45.3125 23.6875
L45.3125 54.6875
L54.2969 54.6875
L54.2969 0
L45.3125 0
L45.3125 8.40625
Q42.0469 3.42188 37.7188 1
Q33.4062 -1.42188 27.6875 -1.42188
Q18.2656 -1.42188 13.375 4.4375
Q8.5 10.2969 8.5 21.5781
M31.1094 56
z
" id="DejaVuSans-75"/>
      <path d="
M56.2031 29.5938
L56.2031 25.2031
L14.8906 25.2031
Q15.4844 15.9219 20.4844 11.0625
Q25.4844 6.20312 34.4219 6.20312
Q39.5938 6.20312 44.4531 7.46875
Q49.3125 8.73438 54.1094 11.2812
L54.1094 2.78125
Q49.2656 0.734375 44.1875 -0.34375
Q39.1094 -1.42188 33.8906 -1.42188
Q20.7969 -1.42188 13.1562 6.1875
Q5.51562 13.8125 5.51562 26.8125
Q5.51562 40.2344 12.7656 48.1094
Q20.0156 56 32.3281 56
Q43.3594 56 49.7812 48.8906
Q56.2031 41.7969 56.2031 29.5938
M47.2188 32.2344
Q47.125 39.5938 43.0938 43.9844
Q39.0625 48.3906 32.4219 48.3906
Q24.9062 48.3906 20.3906 44.1406
Q15.875 39.8906 15.1875 32.1719
z
" id="DejaVuSans-65"/>
      <path d="
M48.6875 27.2969
Q48.6875 37.2031 44.6094 42.8438
Q40.5312 48.4844 33.4062 48.4844
Q26.2656 48.4844 22.1875 42.8438
Q18.1094 37.2031 18.1094 27.2969
Q18.1094 17.3906 22.1875 11.75
Q26.2656 6.10938 33.4062 6.10938
Q40.5312 6.10938 44.6094 11.75
Q48.6875 17.3906 48.6875 27.2969
M18.1094 46.3906
Q20.9531 51.2656 25.2656 53.625
Q29.5938 56 35.5938 56
Q45.5625 56 51.7812 48.0938
Q58.0156 40.1875 58.0156 27.2969
Q58.0156 14.4062 51.7812 6.48438
Q45.5625 -1.42188 35.5938 -1.42188
Q29.5938 -1.42188 25.2656 0.953125
Q20.9531 3.32812 18.1094 8.20312
L18.1094 0
L9.07812 0
L9.07812 75.9844
L18.1094 75.9844
z
" id="DejaVuSans-62"/>
      <path d="
M9.42188 75.9844
L18.4062 75.9844
L18.4062 0
L9.42188 0
z
" id="DejaVuSans-6c"/>
     </defs>
     <g transform="translate(396.31275 67.10175)scale(0.144 -0.144)">
      <use xlink:href="#DejaVuSans-62"/>
      <use x="63.4765625" xlink:href="#DejaVuSans-6c"/>
      <use x="91.259765625" xlink:href="#DejaVuSans-75"/>
      <use x="154.638671875" xlink:href="#DejaVuSans-65"/>
     </g>
    </g>
    <g id="line2d_40">
     <path d="
M360.313 83.1983
L380.473 83.1983" style="fill:none;stroke:#228b22;stroke-linecap:square;"/>
    </g>
    <g id="line2d_41"/>
    <g id="text_16">
     <!-- green -->
     <defs>
      <path d="
M45.4062 27.9844
Q45.4062 37.75 41.375 43.1094
Q37.3594 48.4844 30.0781 48.4844
Q22.8594 48.4844 18.8281 43.1094
Q14.7969 37.75 14.7969 27.9844
Q14.7969 18.2656 18.8281 12.8906
Q22.8594 7.51562 30.0781 7.51562
Q37.3594 7.51562 41.375 12.8906
Q45.4062 18.2656 45.4062 27.9844
M54.3906 6.78125
Q54.3906 -7.17188 48.1875 -13.9844
Q42 -20.7969 29.2031 -20.7969
Q24.4688 -20.7969 20.2656 -20.0938
Q16.0625 -19.3906 12.1094 -17.9219
L12.1094 -9.1875
Q16.0625 -11.3281 19.9219 -12.3438
Q23.7812 -13.375 27.7812 -13.375
Q36.625 -13.375 41.0156 -8.76562
Q45.4062 -4.15625 45.4062 5.17188
L45.4062 9.625
Q42.625 4.78125 38.2812 2.39062
Q33.9375 0 27.875 0
Q17.8281 0 11.6719 7.65625
Q5.51562 15.3281 5.51562 27.9844
Q5.51562 40.6719 11.6719 48.3281
Q17.8281 56 27.875 56
Q33.9375 56 38.2812 53.6094
Q42.625 51.2188 45.4062 46.3906
L45.4062 54.6875
L54.3906 54.6875
z
" id="DejaVuSans-67"/>
      <path d="
M54.8906 33.0156
L54.8906 0
L45.9062 0
L45.9062 32.7188
Q45.9062 40.4844 42.875 44.3281
Q39.8438 48.1875 33.7969 48.1875
Q26.5156 48.1875 22.3125 43.5469
Q18.1094 38.9219 18.1094 30.9062
L18.1094 0
L9.07812 0
L9.07812 54.6875
L18.1094 54.6875
L18.1094 46.1875
Q21.3438 51.125 25.7031 53.5625
Q30.0781 56 35.7969 56
Q45.2188 56 50.0469 50.1719
Q54.8906 44.3438 54.8906 33.0156" id="DejaVuSans-6e"/>
      <path d="
M41.1094 46.2969
Q39.5938 47.1719 37.8125 47.5781
Q36.0312 48 33.8906 48
Q26.2656 48 22.1875 43.0469
Q18.1094 38.0938 18.1094 28.8125
L18.1094 0
L9.07812 0
L9.07812 54.6875
L18.1094 54.6875
L18.1094 46.1875
Q20.9531 51.1719 25.4844 53.5781
Q30.0312 56 36.5312 56
Q37.4531 56 38.5781 55.875
Q39.7031 55.7656 41.0625 55.5156
z
" id="DejaVuSans-72"/>
     </defs>
     <g transform="translate(396.31275 88.23825)scale(0.144 -0.144)">
      <use xlink:href="#DejaVuSans-67"/>
      <use x="63.4765625" xlink:href="#DejaVuSans-72"/>
      <use x="102.33984375" xlink:href="#DejaVuSans-65"/>
      <use x="163.86328125" xlink:href="#DejaVuSans-65"/>
      <use x="225.38671875" xlink:href="#DejaVuSans-6e"/>
     </g>
    </g>
    <g id="line2d_42">
     <path d="
M360.313 104.335
L380.473 104.335" style="fill:none;stroke:#ff0000;stroke-linecap:square;"/>
    </g>
    <g id="line2d_43"/>
    <g id="text_17">
     <!-- red -->
     <defs>
      <path d="
M45.4062 46.3906
L45.4062 75.9844
L54.3906 75.9844
L54.3906 0
L45.4062 0
L45.4062 8.20312
Q42.5781 3.32812 38.25 0.953125
Q33.9375 -1.42188 27.875 -1.42188
Q17.9688 -1.42188 11.7344 6.48438
Q5.51562 14.4062 5.51562 27.2969
Q5.51562 40.1875 11.7344 48.0938
Q17.9688 56 27.875 56
Q33.9375 56 38.25 53.625
Q42.5781 51.2656 45.4062 46.3906
M14.7969 27.2969
Q14.7969 17.3906 18.875 11.75
Q22.9531 6.10938 30.0781 6.10938
Q37.2031 6.10938 41.2969 11.75
Q45.4062 17.3906 45.4062 27.2969
Q45.4062 37.2031 41.2969 42.8438
Q37.2031 48.4844 30.0781 48.4844
Q22.9531 48.4844 18.875 42.8438
Q14.7969 37.2031 14.7969 27.2969" id="DejaVuSans-64"/>
     </defs>
     <g transform="translate(396.31275 109.37475)scale(0.144 -0.144)">
      <use xlink:href="#DejaVuSans-72"/>
      <use x="38.86328125" xlink:href="#DejaVuSans-65"/>
      <use x="100.38671875" xlink:href="#DejaVuSans-64"/>
     </g>
    </g>
    <g id="line2d_44">
     <path d="
M360.313 125.471
L380.473 125.471" style="fill:none;stroke:#696969;stroke-linecap:square;"/>
    </g>
    <g id="line2d_45"/>
    <g id="text_18">
     <!-- lightness -->
     <defs>
      <path d="
M18.3125 70.2188
L18.3125 54.6875
L36.8125 54.6875
L36.8125 47.7031
L18.3125 47.7031
L18.3125 18.0156
Q18.3125 11.3281 20.1406 9.42188
Q21.9688 7.51562 27.5938 7.51562
L36.8125 7.51562
L36.8125 0
L27.5938 0
Q17.1875 0 13.2344 3.875
Q9.28125 7.76562 9.28125 18.0156
L9.28125 47.7031
L2.6875 47.7031
L2.6875 54.6875
L9.28125 54.6875
L9.28125 70.2188
z
" id="DejaVuSans-74"/>
      <path d="
M44.2812 53.0781
L44.2812 44.5781
Q40.4844 46.5312 36.375 47.5
Q32.2812 48.4844 27.875 48.4844
Q21.1875 48.4844 17.8438 46.4375
Q14.5 44.3906 14.5 40.2812
Q14.5 37.1562 16.8906 35.375
Q19.2812 33.5938 26.5156 31.9844
L29.5938 31.2969
Q39.1562 29.25 43.1875 25.5156
Q47.2188 21.7812 47.2188 15.0938
Q47.2188 7.46875 41.1875 3.01562
Q35.1562 -1.42188 24.6094 -1.42188
Q20.2188 -1.42188 15.4531 -0.5625
Q10.6875 0.296875 5.42188 2
L5.42188 11.2812
Q10.4062 8.6875 15.2344 7.39062
Q20.0625 6.10938 24.8125 6.10938
Q31.1562 6.10938 34.5625 8.28125
Q37.9844 10.4531 37.9844 14.4062
Q37.9844 18.0625 35.5156 20.0156
Q33.0625 21.9688 24.7031 23.7812
L21.5781 24.5156
Q13.2344 26.2656 9.51562 29.9062
Q5.8125 33.5469 5.8125 39.8906
Q5.8125 47.6094 11.2812 51.7969
Q16.75 56 26.8125 56
Q31.7812 56 36.1719 55.2656
Q40.5781 54.5469 44.2812 53.0781" id="DejaVuSans-73"/>
      <path d="
M54.8906 33.0156
L54.8906 0
L45.9062 0
L45.9062 32.7188
Q45.9062 40.4844 42.875 44.3281
Q39.8438 48.1875 33.7969 48.1875
Q26.5156 48.1875 22.3125 43.5469
Q18.1094 38.9219 18.1094 30.9062
L18.1094 0
L9.07812 0
L9.07812 75.9844
L18.1094 75.9844
L18.1094 46.1875
Q21.3438 51.125 25.7031 53.5625
Q30.0781 56 35.7969 56
Q45.2188 56 50.0469 50.1719
Q54.8906 44.3438 54.8906 33.0156" id="DejaVuSans-68"/>
      <path d="
M9.42188 54.6875
L18.4062 54.6875
L18.4062 0
L9.42188 0
z

M9.42188 75.9844
L18.4062 75.9844
L18.4062 64.5938
L9.42188 64.5938
z
" id="DejaVuSans-69"/>
     </defs>
     <g transform="translate(396.31275 130.51125)scale(0.144 -0.144)">
      <use xlink:href="#DejaVuSans-6c"/>
      <use x="27.783203125" xlink:href="#DejaVuSans-69"/>
      <use x="55.56640625" xlink:href="#DejaVuSans-67"/>
      <use x="119.04296875" xlink:href="#DejaVuSans-68"/>
      <use x="182.421875" xlink:href="#DejaVuSans-74"/>
      <use x="221.630859375" xlink:href="#DejaVuSans-6e"/>
      <use x="285.009765625" xlink:href="#DejaVuSans-65"/>
      <use x="346.533203125" xlink:href="#DejaVuSans-73"/>
      <use x="398.6328125" xlink:href="#DejaVuSans-73"/>
     </g>
    </g>
    <g id="line2d_46">
     <path d="
M360.313 146.608
L380.473 146.608" style="fill:none;stroke:#ff00ff;stroke-linecap:square;"/>
    </g>
    <g id="line2d_47"/>
    <g id="text_19">
     <!-- green-magenta -->
     <defs>
      <path d="
M52 44.1875
Q55.375 50.25 60.0625 53.125
Q64.75 56 71.0938 56
Q79.6406 56 84.2812 50.0156
Q88.9219 44.0469 88.9219 33.0156
L88.9219 0
L79.8906 0
L79.8906 32.7188
Q79.8906 40.5781 77.0938 44.375
Q74.3125 48.1875 68.6094 48.1875
Q61.625 48.1875 57.5625 43.5469
Q53.5156 38.9219 53.5156 30.9062
L53.5156 0
L44.4844 0
L44.4844 32.7188
Q44.4844 40.625 41.7031 44.4062
Q38.9219 48.1875 33.1094 48.1875
Q26.2188 48.1875 22.1562 43.5312
Q18.1094 38.875 18.1094 30.9062
L18.1094 0
L9.07812 0
L9.07812 54.6875
L18.1094 54.6875
L18.1094 46.1875
Q21.1875 51.2188 25.4844 53.6094
Q29.7812 56 35.6875 56
Q41.6562 56 45.8281 52.9688
Q50 49.9531 52 44.1875" id="DejaVuSans-6d"/>
      <path d="
M4.89062 31.3906
L31.2031 31.3906
L31.2031 23.3906
L4.89062 23.3906
z
" id="DejaVuSans-2d"/>
      <path d="
M34.2812 27.4844
Q23.3906 27.4844 19.1875 25
Q14.9844 22.5156 14.9844 16.5
Q14.9844 11.7188 18.1406 8.90625
Q21.2969 6.10938 26.7031 6.10938
Q34.1875 6.10938 38.7031 11.4062
Q43.2188 16.7031 43.2188 25.4844
L43.2188 27.4844
z

M52.2031 31.2031
L52.2031 0
L43.2188 0
L43.2188 8.29688
Q40.1406 3.32812 35.5469 0.953125
Q30.9531 -1.42188 24.3125 -1.42188
Q15.9219 -1.42188 10.9531 3.29688
Q6 8.01562 6 15.9219
Q6 25.1406 12.1719 29.8281
Q18.3594 34.5156 30.6094 34.5156
L43.2188 34.5156
L43.2188 35.4062
Q43.2188 41.6094 39.1406 45
Q35.0625 48.3906 27.6875 48.3906
Q23 48.3906 18.5469 47.2656
Q14.1094 46.1406 10.0156 43.8906
L10.0156 52.2031
Q14.9375 54.1094 19.5781 55.0469
Q24.2188 56 28.6094 56
Q40.4844 56 46.3438 49.8438
Q52.2031 43.7031 52.2031 31.2031" id="DejaVuSans-61"/>
     </defs>
     <g transform="translate(396.31275 151.64775)scale(0.144 -0.144)">
      <use xlink:href="#DejaVuSans-67"/>
      <use x="63.4765625" xlink:href="#DejaVuSans-72"/>
      <use x="102.33984375" xlink:href="#DejaVuSans-65"/>
      <use x="163.86328125" xlink:href="#DejaVuSans-65"/>
      <use x="225.38671875" xlink:href="#DejaVuSans-6e"/>
      <use x="288.765625" xlink:href="#DejaVuSans-2d"/>
      <use x="324.849609375" xlink:href="#DejaVuSans-6d"/>
      <use x="422.26171875" xlink:href="#DejaVuSans-61"/>
      <use x="483.541015625" xlink:href="#DejaVuSans-67"/>
      <use x="547.017578125" xlink:href="#DejaVuSans-65"/>
      <use x="608.541015625" xlink:href="#DejaVuSans-6e"/>
      <use x="671.919921875" xlink:href="#DejaVuSans-74"/>
      <use x="711.12890625" xlink:href="#DejaVuSans-61"/>
     </g>
    </g>
    <g id="line2d_48">
     <path d="
M360.313 167.744
L380.473 167.744" style="fill:none;stroke:#ffff00;stroke-linecap:square;"/>
    </g>
    <g id="line2d_49"/>
    <g id="text_20">
     <!-- blue-yellow -->
     <defs>
      <path d="
M30.6094 48.3906
Q23.3906 48.3906 19.1875 42.75
Q14.9844 37.1094 14.9844 27.2969
Q14.9844 17.4844 19.1562 11.8438
Q23.3438 6.20312 30.6094 6.20312
Q37.7969 6.20312 41.9844 11.8594
Q46.1875 17.5312 46.1875 27.2969
Q46.1875 37.0156 41.9844 42.7031
Q37.7969 48.3906 30.6094 48.3906
M30.6094 56
Q42.3281 56 49.0156 48.375
Q55.7188 40.7656 55.7188 27.2969
Q55.7188 13.875 49.0156 6.21875
Q42.3281 -1.42188 30.6094 -1.42188
Q18.8438 -1.42188 12.1719 6.21875
Q5.51562 13.875 5.51562 27.2969
Q5.51562 40.7656 12.1719 48.375
Q18.8438 56 30.6094 56" id="DejaVuSans-6f"/>
      <path d="
M4.20312 54.6875
L13.1875 54.6875
L24.4219 12.0156
L35.5938 54.6875
L46.1875 54.6875
L57.4219 12.0156
L68.6094 54.6875
L77.5938 54.6875
L63.2812 0
L52.6875 0
L40.9219 44.8281
L29.1094 0
L18.5 0
z
" id="DejaVuSans-77"/>
      <path d="
M32.1719 -5.07812
Q28.375 -14.8438 24.75 -17.8125
Q21.1406 -20.7969 15.0938 -20.7969
L7.90625 -20.7969
L7.90625 -13.2812
L13.1875 -13.2812
Q16.8906 -13.2812 18.9375 -11.5156
Q21 -9.76562 23.4844 -3.21875
L25.0938 0.875
L2.98438 54.6875
L12.5 54.6875
L29.5938 11.9219
L46.6875 54.6875
L56.2031 54.6875
z
" id="DejaVuSans-79"/>
     </defs>
     <g transform="translate(396.31275 172.78425)scale(0.144 -0.144)">
      <use xlink:href="#DejaVuSans-62"/>
      <use x="63.4765625" xlink:href="#DejaVuSans-6c"/>
      <use x="91.259765625" xlink:href="#DejaVuSans-75"/>
      <use x="154.638671875" xlink:href="#DejaVuSans-65"/>
      <use x="216.162109375" xlink:href="#DejaVuSans-2d"/>
      <use x="250.49609375" xlink:href="#DejaVuSans-79"/>
      <use x="309.67578125" xlink:href="#DejaVuSans-65"/>
      <use x="371.19921875" xlink:href="#DejaVuSans-6c"/>
      <use x="398.982421875" xlink:href="#DejaVuSans-6c"/>
      <use x="426.765625" xlink:href="#DejaVuSans-6f"/>
      <use x="487.947265625" xlink:href="#DejaVuSans-77"/>
     </g>
    </g>
    <g id="line2d_50">
     <path d="
M360.313 188.881
L380.473 188.881" style="fill:none;stroke:#8a2be2;stroke-linecap:square;"/>
    </g>
    <g id="line2d_51"/>
    <g id="text_21">
     <!-- hue -->
     <g transform="translate(396.31275 193.92075)scale(0.144 -0.144)">
      <use xlink:href="#DejaVuSans-68"/>
      <use x="63.37890625" xlink:href="#DejaVuSans-75"/>
      <use x="126.7578125" xlink:href="#DejaVuSans-65"/>
     </g>
    </g>
    <g id="line2d_52">
     <path d="
M360.313 210.017
L380.473 210.017" style="fill:none;stroke:#00ffff;stroke-linecap:square;"/>
    </g>
    <g id="line2d_53"/>
    <g id="text_22">
     <!-- saturation -->
     <g transform="translate(396.31275 215.05725)scale(0.144 -0.144)">
      <use xlink:href="#DejaVuSans-73"/>
      <use x="52.099609375" xlink:href="#DejaVuSans-61"/>
      <use x="113.37890625" xlink:href="#DejaVuSans-74"/>
      <use x="152.587890625" xlink:href="#DejaVuSans-75"/>
      <use x="215.966796875" xlink:href="#DejaVuSans-72"/>
      <use x="257.080078125" xlink:href="#DejaVuSans-61"/>
      <use x="318.359375" xlink:href="#DejaVuSans-74"/>
      <use x="357.568359375" xlink:href="#DejaVuSans-69"/>
      <use x="385.3515625" xlink:href="#DejaVuSans-6f"/>
      <use x="446.533203125" xlink:href="#DejaVuSans-6e"/>
     </g>
    </g>
    <g id="line2d_54">
     <path d="
M360.313 231.154
L380.473 231.154" style="fill:none;stroke:#ffa500;stroke-linecap:square;"/>
    </g>
    <g id="line2d_55"/>
    <g id="text_23">
     <!-- value -->
     <defs>
      <path d="
M2.98438 54.6875
L12.5 54.6875
L29.5938 8.79688
L46.6875 54.6875
L56.2031 54.6875
L35.6875 0
L23.4844 0
z
" id="DejaVuSans-76"/>
     </defs>
     <g transform="translate(396.31275 236.19375)scale(0.144 -0.144)">
      <use xlink:href="#DejaVuSans-76"/>
      <use x="59.1796875" xlink:href="#DejaVuSans-61"/>
      <use x="120.458984375" xlink:href="#DejaVuSans-6c"/>
      <use x="148.2421875" xlink:href="#DejaVuSans-75"/>
      <use x="211.62109375" xlink:href="#DejaVuSans-65"/>
     </g>
    </g>
   </g>
  </g>
 </g>
 <defs>
  <clipPath id="p7ff5b81e1d">
   <rect height="345.6" width="446.4" x="72.0" y="43.2"/>
  </clipPath>
 </defs>
</svg>
