<?xml version="1.0" encoding="utf-8" standalone="no"?>
<!DOCTYPE svg PUBLIC "-//W3C//DTD SVG 1.1//EN"
  "http://www.w3.org/Graphics/SVG/1.1/DTD/svg11.dtd">
<!-- Created with matplotlib (http://matplotlib.org/) -->
<svg height="94pt" version="1.1" viewBox="0 0 535 94" width="535pt" xmlns="http://www.w3.org/2000/svg" xmlns:xlink="http://www.w3.org/1999/xlink">
 <defs>
  <style type="text/css">
*{stroke-linecap:butt;stroke-linejoin:round;}
  </style>
 </defs>
 <g id="figure_1">
  <g id="patch_1">
   <path d="
M0 94.8137
L535.823 94.8137
L535.823 1.42109e-14
L0 1.42109e-14
z
" style="fill:#ffffff;"/>
  </g>
  <g id="axes_1">
   <g id="patch_2">
    <path clip-path="url(#pa434ee1f66)" d="
M10.2234 72
L12.2484 72
L526.598 72
L528.623 72
L528.623 7.2
L526.598 7.2
L12.2484 7.2
L10.2234 7.2
z
" style="fill:#ffffff;stroke:#ffffff;stroke-linejoin:miter;stroke-width:0.01;"/>
   </g>
   <g id="QuadMesh_1">
    <defs>
     <path d="
M10.2234 -22.8137
L12.2484 -22.8137
L12.2484 -87.6137
L10.2234 -87.6137
L10.2234 -22.8137" id="C0_0_7d2f5cb874"/>
     <path d="
M12.2484 -22.8137
L14.2734 -22.8137
L14.2734 -87.6137
L12.2484 -87.6137
L12.2484 -22.8137" id="C0_1_121ccd2dc1"/>
     <path d="
M14.2734 -22.8137
L16.2984 -22.8137
L16.2984 -87.6137
L14.2734 -87.6137
L14.2734 -22.8137" id="C0_2_cb3835ccdb"/>
     <path d="
M16.2984 -22.8137
L18.3234 -22.8137
L18.3234 -87.6137
L16.2984 -87.6137
L16.2984 -22.8137" id="C0_3_8b7a608771"/>
     <path d="
M18.3234 -22.8137
L20.3484 -22.8137
L20.3484 -87.6137
L18.3234 -87.6137
L18.3234 -22.8137" id="C0_4_dfb646c977"/>
     <path d="
M20.3484 -22.8137
L22.3734 -22.8137
L22.3734 -87.6137
L20.3484 -87.6137
L20.3484 -22.8137" id="C0_5_b165278000"/>
     <path d="
M22.3734 -22.8137
L24.3984 -22.8137
L24.3984 -87.6137
L22.3734 -87.6137
L22.3734 -22.8137" id="C0_6_35587e9bf4"/>
     <path d="
M24.3984 -22.8137
L26.4234 -22.8137
L26.4234 -87.6137
L24.3984 -87.6137
L24.3984 -22.8137" id="C0_7_0d53c3f156"/>
     <path d="
M26.4234 -22.8137
L28.4484 -22.8137
L28.4484 -87.6137
L26.4234 -87.6137
L26.4234 -22.8137" id="C0_8_901abf3536"/>
     <path d="
M28.4484 -22.8137
L30.4734 -22.8137
L30.4734 -87.6137
L28.4484 -87.6137
L28.4484 -22.8137" id="C0_9_fadf80ef8d"/>
     <path d="
M30.4734 -22.8137
L32.4984 -22.8137
L32.4984 -87.6137
L30.4734 -87.6137
L30.4734 -22.8137" id="C0_a_57371ac2b0"/>
     <path d="
M32.4984 -22.8137
L34.5234 -22.8137
L34.5234 -87.6137
L32.4984 -87.6137
L32.4984 -22.8137" id="C0_b_57ba046f66"/>
     <path d="
M34.5234 -22.8137
L36.5484 -22.8137
L36.5484 -87.6137
L34.5234 -87.6137
L34.5234 -22.8137" id="C0_c_f17539f5ea"/>
     <path d="
M36.5484 -22.8137
L38.5734 -22.8137
L38.5734 -87.6137
L36.5484 -87.6137
L36.5484 -22.8137" id="C0_d_9944719c3f"/>
     <path d="
M38.5734 -22.8137
L40.5984 -22.8137
L40.5984 -87.6137
L38.5734 -87.6137
L38.5734 -22.8137" id="C0_e_6576ce690a"/>
     <path d="
M40.5984 -22.8137
L42.6234 -22.8137
L42.6234 -87.6137
L40.5984 -87.6137
L40.5984 -22.8137" id="C0_f_afc37eedb0"/>
     <path d="
M42.6234 -22.8137
L44.6484 -22.8137
L44.6484 -87.6137
L42.6234 -87.6137
L42.6234 -22.8137" id="C0_10_cb4393c917"/>
     <path d="
M44.6484 -22.8137
L46.6734 -22.8137
L46.6734 -87.6137
L44.6484 -87.6137
L44.6484 -22.8137" id="C0_11_0275b80b15"/>
     <path d="
M46.6734 -22.8137
L48.6984 -22.8137
L48.6984 -87.6137
L46.6734 -87.6137
L46.6734 -22.8137" id="C0_12_9bc2ba78bb"/>
     <path d="
M48.6984 -22.8137
L50.7234 -22.8137
L50.7234 -87.6137
L48.6984 -87.6137
L48.6984 -22.8137" id="C0_13_e247161b74"/>
     <path d="
M50.7234 -22.8137
L52.7484 -22.8137
L52.7484 -87.6137
L50.7234 -87.6137
L50.7234 -22.8137" id="C0_14_dc426cb283"/>
     <path d="
M52.7484 -22.8137
L54.7734 -22.8137
L54.7734 -87.6137
L52.7484 -87.6137
L52.7484 -22.8137" id="C0_15_221153cb93"/>
     <path d="
M54.7734 -22.8137
L56.7984 -22.8137
L56.7984 -87.6137
L54.7734 -87.6137
L54.7734 -22.8137" id="C0_16_13b53551a0"/>
     <path d="
M56.7984 -22.8137
L58.8234 -22.8137
L58.8234 -87.6137
L56.7984 -87.6137
L56.7984 -22.8137" id="C0_17_4b050b0054"/>
     <path d="
M58.8234 -22.8137
L60.8484 -22.8137
L60.8484 -87.6137
L58.8234 -87.6137
L58.8234 -22.8137" id="C0_18_3af776ea62"/>
     <path d="
M60.8484 -22.8137
L62.8734 -22.8137
L62.8734 -87.6137
L60.8484 -87.6137
L60.8484 -22.8137" id="C0_19_1ab5880a55"/>
     <path d="
M62.8734 -22.8137
L64.8984 -22.8137
L64.8984 -87.6137
L62.8734 -87.6137
L62.8734 -22.8137" id="C0_1a_866dbd69ae"/>
     <path d="
M64.8984 -22.8137
L66.9234 -22.8137
L66.9234 -87.6137
L64.8984 -87.6137
L64.8984 -22.8137" id="C0_1b_723c1714d1"/>
     <path d="
M66.9234 -22.8137
L68.9484 -22.8137
L68.9484 -87.6137
L66.9234 -87.6137
L66.9234 -22.8137" id="C0_1c_fe1e74f3ba"/>
     <path d="
M68.9484 -22.8137
L70.9734 -22.8137
L70.9734 -87.6137
L68.9484 -87.6137
L68.9484 -22.8137" id="C0_1d_5eaf75da4c"/>
     <path d="
M70.9734 -22.8137
L72.9984 -22.8137
L72.9984 -87.6137
L70.9734 -87.6137
L70.9734 -22.8137" id="C0_1e_ece8842fdc"/>
     <path d="
M72.9984 -22.8137
L75.0234 -22.8137
L75.0234 -87.6137
L72.9984 -87.6137
L72.9984 -22.8137" id="C0_1f_ba75b0adbe"/>
     <path d="
M75.0234 -22.8137
L77.0484 -22.8137
L77.0484 -87.6137
L75.0234 -87.6137
L75.0234 -22.8137" id="C0_20_c4a974c083"/>
     <path d="
M77.0484 -22.8137
L79.0734 -22.8137
L79.0734 -87.6137
L77.0484 -87.6137
L77.0484 -22.8137" id="C0_21_46b25d49bb"/>
     <path d="
M79.0734 -22.8137
L81.0984 -22.8137
L81.0984 -87.6137
L79.0734 -87.6137
L79.0734 -22.8137" id="C0_22_aa0920d09b"/>
     <path d="
M81.0984 -22.8137
L83.1234 -22.8137
L83.1234 -87.6137
L81.0984 -87.6137
L81.0984 -22.8137" id="C0_23_f903ff29e3"/>
     <path d="
M83.1234 -22.8137
L85.1484 -22.8137
L85.1484 -87.6137
L83.1234 -87.6137
L83.1234 -22.8137" id="C0_24_c43b89fa9b"/>
     <path d="
M85.1484 -22.8137
L87.1734 -22.8137
L87.1734 -87.6137
L85.1484 -87.6137
L85.1484 -22.8137" id="C0_25_8daa3d7bec"/>
     <path d="
M87.1734 -22.8137
L89.1984 -22.8137
L89.1984 -87.6137
L87.1734 -87.6137
L87.1734 -22.8137" id="C0_26_df015f7552"/>
     <path d="
M89.1984 -22.8137
L91.2234 -22.8137
L91.2234 -87.6137
L89.1984 -87.6137
L89.1984 -22.8137" id="C0_27_f0e733ea1e"/>
     <path d="
M91.2234 -22.8137
L93.2484 -22.8137
L93.2484 -87.6137
L91.2234 -87.6137
L91.2234 -22.8137" id="C0_28_62fe406e6b"/>
     <path d="
M93.2484 -22.8137
L95.2734 -22.8137
L95.2734 -87.6137
L93.2484 -87.6137
L93.2484 -22.8137" id="C0_29_2b8f720ddf"/>
     <path d="
M95.2734 -22.8137
L97.2984 -22.8137
L97.2984 -87.6137
L95.2734 -87.6137
L95.2734 -22.8137" id="C0_2a_c0b6b81e6f"/>
     <path d="
M97.2984 -22.8137
L99.3234 -22.8137
L99.3234 -87.6137
L97.2984 -87.6137
L97.2984 -22.8137" id="C0_2b_31938f58dd"/>
     <path d="
M99.3234 -22.8137
L101.348 -22.8137
L101.348 -87.6137
L99.3234 -87.6137
L99.3234 -22.8137" id="C0_2c_8978606420"/>
     <path d="
M101.348 -22.8137
L103.373 -22.8137
L103.373 -87.6137
L101.348 -87.6137
L101.348 -22.8137" id="C0_2d_544c1daefb"/>
     <path d="
M103.373 -22.8137
L105.398 -22.8137
L105.398 -87.6137
L103.373 -87.6137
L103.373 -22.8137" id="C0_2e_f724e66a48"/>
     <path d="
M105.398 -22.8137
L107.423 -22.8137
L107.423 -87.6137
L105.398 -87.6137
L105.398 -22.8137" id="C0_2f_4467398fdf"/>
     <path d="
M107.423 -22.8137
L109.448 -22.8137
L109.448 -87.6137
L107.423 -87.6137
L107.423 -22.8137" id="C0_30_86169a1e90"/>
     <path d="
M109.448 -22.8137
L111.473 -22.8137
L111.473 -87.6137
L109.448 -87.6137
L109.448 -22.8137" id="C0_31_28a2d4be19"/>
     <path d="
M111.473 -22.8137
L113.498 -22.8137
L113.498 -87.6137
L111.473 -87.6137
L111.473 -22.8137" id="C0_32_1cfb6291a2"/>
     <path d="
M113.498 -22.8137
L115.523 -22.8137
L115.523 -87.6137
L113.498 -87.6137
L113.498 -22.8137" id="C0_33_8e7d70f1cf"/>
     <path d="
M115.523 -22.8137
L117.548 -22.8137
L117.548 -87.6137
L115.523 -87.6137
L115.523 -22.8137" id="C0_34_8e5714d122"/>
     <path d="
M117.548 -22.8137
L119.573 -22.8137
L119.573 -87.6137
L117.548 -87.6137
L117.548 -22.8137" id="C0_35_0a5e984523"/>
     <path d="
M119.573 -22.8137
L121.598 -22.8137
L121.598 -87.6137
L119.573 -87.6137
L119.573 -22.8137" id="C0_36_171aab45d8"/>
     <path d="
M121.598 -22.8137
L123.623 -22.8137
L123.623 -87.6137
L121.598 -87.6137
L121.598 -22.8137" id="C0_37_043adcfd7a"/>
     <path d="
M123.623 -22.8137
L125.648 -22.8137
L125.648 -87.6137
L123.623 -87.6137
L123.623 -22.8137" id="C0_38_c5893affa7"/>
     <path d="
M125.648 -22.8137
L127.673 -22.8137
L127.673 -87.6137
L125.648 -87.6137
L125.648 -22.8137" id="C0_39_2c592846a2"/>
     <path d="
M127.673 -22.8137
L129.698 -22.8137
L129.698 -87.6137
L127.673 -87.6137
L127.673 -22.8137" id="C0_3a_787911ec65"/>
     <path d="
M129.698 -22.8137
L131.723 -22.8137
L131.723 -87.6137
L129.698 -87.6137
L129.698 -22.8137" id="C0_3b_5d9cc37af0"/>
     <path d="
M131.723 -22.8137
L133.748 -22.8137
L133.748 -87.6137
L131.723 -87.6137
L131.723 -22.8137" id="C0_3c_9302ce6c3e"/>
     <path d="
M133.748 -22.8137
L135.773 -22.8137
L135.773 -87.6137
L133.748 -87.6137
L133.748 -22.8137" id="C0_3d_cf4bf6dda4"/>
     <path d="
M135.773 -22.8137
L137.798 -22.8137
L137.798 -87.6137
L135.773 -87.6137
L135.773 -22.8137" id="C0_3e_d1d207039c"/>
     <path d="
M137.798 -22.8137
L139.823 -22.8137
L139.823 -87.6137
L137.798 -87.6137
L137.798 -22.8137" id="C0_3f_431d39ac99"/>
     <path d="
M139.823 -22.8137
L141.848 -22.8137
L141.848 -87.6137
L139.823 -87.6137
L139.823 -22.8137" id="C0_40_a334321597"/>
     <path d="
M141.848 -22.8137
L143.873 -22.8137
L143.873 -87.6137
L141.848 -87.6137
L141.848 -22.8137" id="C0_41_7bb1d81962"/>
     <path d="
M143.873 -22.8137
L145.898 -22.8137
L145.898 -87.6137
L143.873 -87.6137
L143.873 -22.8137" id="C0_42_a2efefb1a9"/>
     <path d="
M145.898 -22.8137
L147.923 -22.8137
L147.923 -87.6137
L145.898 -87.6137
L145.898 -22.8137" id="C0_43_cf8cc53f9c"/>
     <path d="
M147.923 -22.8137
L149.948 -22.8137
L149.948 -87.6137
L147.923 -87.6137
L147.923 -22.8137" id="C0_44_3aa2d454d6"/>
     <path d="
M149.948 -22.8137
L151.973 -22.8137
L151.973 -87.6137
L149.948 -87.6137
L149.948 -22.8137" id="C0_45_04dd99b8d0"/>
     <path d="
M151.973 -22.8137
L153.998 -22.8137
L153.998 -87.6137
L151.973 -87.6137
L151.973 -22.8137" id="C0_46_8d2a24238e"/>
     <path d="
M153.998 -22.8137
L156.023 -22.8137
L156.023 -87.6137
L153.998 -87.6137
L153.998 -22.8137" id="C0_47_e0611c9552"/>
     <path d="
M156.023 -22.8137
L158.048 -22.8137
L158.048 -87.6137
L156.023 -87.6137
L156.023 -22.8137" id="C0_48_18457b7c5f"/>
     <path d="
M158.048 -22.8137
L160.073 -22.8137
L160.073 -87.6137
L158.048 -87.6137
L158.048 -22.8137" id="C0_49_6f35890857"/>
     <path d="
M160.073 -22.8137
L162.098 -22.8137
L162.098 -87.6137
L160.073 -87.6137
L160.073 -22.8137" id="C0_4a_7ecb7d966a"/>
     <path d="
M162.098 -22.8137
L164.123 -22.8137
L164.123 -87.6137
L162.098 -87.6137
L162.098 -22.8137" id="C0_4b_5bf23862fd"/>
     <path d="
M164.123 -22.8137
L166.148 -22.8137
L166.148 -87.6137
L164.123 -87.6137
L164.123 -22.8137" id="C0_4c_e9e515ebde"/>
     <path d="
M166.148 -22.8137
L168.173 -22.8137
L168.173 -87.6137
L166.148 -87.6137
L166.148 -22.8137" id="C0_4d_61e38ca294"/>
     <path d="
M168.173 -22.8137
L170.198 -22.8137
L170.198 -87.6137
L168.173 -87.6137
L168.173 -22.8137" id="C0_4e_eb1ebe7ab2"/>
     <path d="
M170.198 -22.8137
L172.223 -22.8137
L172.223 -87.6137
L170.198 -87.6137
L170.198 -22.8137" id="C0_4f_b914a02df6"/>
     <path d="
M172.223 -22.8137
L174.248 -22.8137
L174.248 -87.6137
L172.223 -87.6137
L172.223 -22.8137" id="C0_50_266b1c9606"/>
     <path d="
M174.248 -22.8137
L176.273 -22.8137
L176.273 -87.6137
L174.248 -87.6137
L174.248 -22.8137" id="C0_51_497dd603f9"/>
     <path d="
M176.273 -22.8137
L178.298 -22.8137
L178.298 -87.6137
L176.273 -87.6137
L176.273 -22.8137" id="C0_52_a631cdd935"/>
     <path d="
M178.298 -22.8137
L180.323 -22.8137
L180.323 -87.6137
L178.298 -87.6137
L178.298 -22.8137" id="C0_53_c47d29ef95"/>
     <path d="
M180.323 -22.8137
L182.348 -22.8137
L182.348 -87.6137
L180.323 -87.6137
L180.323 -22.8137" id="C0_54_cb8e0d43c5"/>
     <path d="
M182.348 -22.8137
L184.373 -22.8137
L184.373 -87.6137
L182.348 -87.6137
L182.348 -22.8137" id="C0_55_11375dff8d"/>
     <path d="
M184.373 -22.8137
L186.398 -22.8137
L186.398 -87.6137
L184.373 -87.6137
L184.373 -22.8137" id="C0_56_8bf974f746"/>
     <path d="
M186.398 -22.8137
L188.423 -22.8137
L188.423 -87.6137
L186.398 -87.6137
L186.398 -22.8137" id="C0_57_ebd1d9f9aa"/>
     <path d="
M188.423 -22.8137
L190.448 -22.8137
L190.448 -87.6137
L188.423 -87.6137
L188.423 -22.8137" id="C0_58_de3314c7b7"/>
     <path d="
M190.448 -22.8137
L192.473 -22.8137
L192.473 -87.6137
L190.448 -87.6137
L190.448 -22.8137" id="C0_59_c97ce70990"/>
     <path d="
M192.473 -22.8137
L194.498 -22.8137
L194.498 -87.6137
L192.473 -87.6137
L192.473 -22.8137" id="C0_5a_6620749579"/>
     <path d="
M194.498 -22.8137
L196.523 -22.8137
L196.523 -87.6137
L194.498 -87.6137
L194.498 -22.8137" id="C0_5b_9e8e259c00"/>
     <path d="
M196.523 -22.8137
L198.548 -22.8137
L198.548 -87.6137
L196.523 -87.6137
L196.523 -22.8137" id="C0_5c_7639fe47dd"/>
     <path d="
M198.548 -22.8137
L200.573 -22.8137
L200.573 -87.6137
L198.548 -87.6137
L198.548 -22.8137" id="C0_5d_b48f4106d9"/>
     <path d="
M200.573 -22.8137
L202.598 -22.8137
L202.598 -87.6137
L200.573 -87.6137
L200.573 -22.8137" id="C0_5e_24f76bc0ca"/>
     <path d="
M202.598 -22.8137
L204.623 -22.8137
L204.623 -87.6137
L202.598 -87.6137
L202.598 -22.8137" id="C0_5f_b420a33cb9"/>
     <path d="
M204.623 -22.8137
L206.648 -22.8137
L206.648 -87.6137
L204.623 -87.6137
L204.623 -22.8137" id="C0_60_85fb1f742f"/>
     <path d="
M206.648 -22.8137
L208.673 -22.8137
L208.673 -87.6137
L206.648 -87.6137
L206.648 -22.8137" id="C0_61_0bdac1016b"/>
     <path d="
M208.673 -22.8137
L210.698 -22.8137
L210.698 -87.6137
L208.673 -87.6137
L208.673 -22.8137" id="C0_62_6b18420154"/>
     <path d="
M210.698 -22.8137
L212.723 -22.8137
L212.723 -87.6137
L210.698 -87.6137
L210.698 -22.8137" id="C0_63_10a6aacf8c"/>
     <path d="
M212.723 -22.8137
L214.748 -22.8137
L214.748 -87.6137
L212.723 -87.6137
L212.723 -22.8137" id="C0_64_34bd86644f"/>
     <path d="
M214.748 -22.8137
L216.773 -22.8137
L216.773 -87.6137
L214.748 -87.6137
L214.748 -22.8137" id="C0_65_da31eb8c95"/>
     <path d="
M216.773 -22.8137
L218.798 -22.8137
L218.798 -87.6137
L216.773 -87.6137
L216.773 -22.8137" id="C0_66_8ebed87727"/>
     <path d="
M218.798 -22.8137
L220.823 -22.8137
L220.823 -87.6137
L218.798 -87.6137
L218.798 -22.8137" id="C0_67_d1c8a98623"/>
     <path d="
M220.823 -22.8137
L222.848 -22.8137
L222.848 -87.6137
L220.823 -87.6137
L220.823 -22.8137" id="C0_68_a15933ba2c"/>
     <path d="
M222.848 -22.8137
L224.873 -22.8137
L224.873 -87.6137
L222.848 -87.6137
L222.848 -22.8137" id="C0_69_2f1eb70ab7"/>
     <path d="
M224.873 -22.8137
L226.898 -22.8137
L226.898 -87.6137
L224.873 -87.6137
L224.873 -22.8137" id="C0_6a_711a49b7b4"/>
     <path d="
M226.898 -22.8137
L228.923 -22.8137
L228.923 -87.6137
L226.898 -87.6137
L226.898 -22.8137" id="C0_6b_adba546c8a"/>
     <path d="
M228.923 -22.8137
L230.948 -22.8137
L230.948 -87.6137
L228.923 -87.6137
L228.923 -22.8137" id="C0_6c_3f6b9a5fcc"/>
     <path d="
M230.948 -22.8137
L232.973 -22.8137
L232.973 -87.6137
L230.948 -87.6137
L230.948 -22.8137" id="C0_6d_934d72e6b3"/>
     <path d="
M232.973 -22.8137
L234.998 -22.8137
L234.998 -87.6137
L232.973 -87.6137
L232.973 -22.8137" id="C0_6e_5eb8c65b97"/>
     <path d="
M234.998 -22.8137
L237.023 -22.8137
L237.023 -87.6137
L234.998 -87.6137
L234.998 -22.8137" id="C0_6f_f3499960da"/>
     <path d="
M237.023 -22.8137
L239.048 -22.8137
L239.048 -87.6137
L237.023 -87.6137
L237.023 -22.8137" id="C0_70_850cb4f0d5"/>
     <path d="
M239.048 -22.8137
L241.073 -22.8137
L241.073 -87.6137
L239.048 -87.6137
L239.048 -22.8137" id="C0_71_99db70095a"/>
     <path d="
M241.073 -22.8137
L243.098 -22.8137
L243.098 -87.6137
L241.073 -87.6137
L241.073 -22.8137" id="C0_72_dc5065a9be"/>
     <path d="
M243.098 -22.8137
L245.123 -22.8137
L245.123 -87.6137
L243.098 -87.6137
L243.098 -22.8137" id="C0_73_cba7ecf399"/>
     <path d="
M245.123 -22.8137
L247.148 -22.8137
L247.148 -87.6137
L245.123 -87.6137
L245.123 -22.8137" id="C0_74_6089e26a83"/>
     <path d="
M247.148 -22.8137
L249.173 -22.8137
L249.173 -87.6137
L247.148 -87.6137
L247.148 -22.8137" id="C0_75_18ab8504d1"/>
     <path d="
M249.173 -22.8137
L251.198 -22.8137
L251.198 -87.6137
L249.173 -87.6137
L249.173 -22.8137" id="C0_76_aeba91e72a"/>
     <path d="
M251.198 -22.8137
L253.223 -22.8137
L253.223 -87.6137
L251.198 -87.6137
L251.198 -22.8137" id="C0_77_25723a6230"/>
     <path d="
M253.223 -22.8137
L255.248 -22.8137
L255.248 -87.6137
L253.223 -87.6137
L253.223 -22.8137" id="C0_78_4d515f06a6"/>
     <path d="
M255.248 -22.8137
L257.273 -22.8137
L257.273 -87.6137
L255.248 -87.6137
L255.248 -22.8137" id="C0_79_7f37ad142a"/>
     <path d="
M257.273 -22.8137
L259.298 -22.8137
L259.298 -87.6137
L257.273 -87.6137
L257.273 -22.8137" id="C0_7a_e093017e67"/>
     <path d="
M259.298 -22.8137
L261.323 -22.8137
L261.323 -87.6137
L259.298 -87.6137
L259.298 -22.8137" id="C0_7b_85cdae1d95"/>
     <path d="
M261.323 -22.8137
L263.348 -22.8137
L263.348 -87.6137
L261.323 -87.6137
L261.323 -22.8137" id="C0_7c_b6ea26c501"/>
     <path d="
M263.348 -22.8137
L265.373 -22.8137
L265.373 -87.6137
L263.348 -87.6137
L263.348 -22.8137" id="C0_7d_3a2250fa1e"/>
     <path d="
M265.373 -22.8137
L267.398 -22.8137
L267.398 -87.6137
L265.373 -87.6137
L265.373 -22.8137" id="C0_7e_537ab613f3"/>
     <path d="
M267.398 -22.8137
L269.423 -22.8137
L269.423 -87.6137
L267.398 -87.6137
L267.398 -22.8137" id="C0_7f_f1ffb9d470"/>
     <path d="
M269.423 -22.8137
L271.448 -22.8137
L271.448 -87.6137
L269.423 -87.6137
L269.423 -22.8137" id="C0_80_5add3de66e"/>
     <path d="
M271.448 -22.8137
L273.473 -22.8137
L273.473 -87.6137
L271.448 -87.6137
L271.448 -22.8137" id="C0_81_7632e7916f"/>
     <path d="
M273.473 -22.8137
L275.498 -22.8137
L275.498 -87.6137
L273.473 -87.6137
L273.473 -22.8137" id="C0_82_a05017da0e"/>
     <path d="
M275.498 -22.8137
L277.523 -22.8137
L277.523 -87.6137
L275.498 -87.6137
L275.498 -22.8137" id="C0_83_7b3e7bf396"/>
     <path d="
M277.523 -22.8137
L279.548 -22.8137
L279.548 -87.6137
L277.523 -87.6137
L277.523 -22.8137" id="C0_84_df231f780e"/>
     <path d="
M279.548 -22.8137
L281.573 -22.8137
L281.573 -87.6137
L279.548 -87.6137
L279.548 -22.8137" id="C0_85_8a396e25f0"/>
     <path d="
M281.573 -22.8137
L283.598 -22.8137
L283.598 -87.6137
L281.573 -87.6137
L281.573 -22.8137" id="C0_86_9d25f2948c"/>
     <path d="
M283.598 -22.8137
L285.623 -22.8137
L285.623 -87.6137
L283.598 -87.6137
L283.598 -22.8137" id="C0_87_3b78c29da8"/>
     <path d="
M285.623 -22.8137
L287.648 -22.8137
L287.648 -87.6137
L285.623 -87.6137
L285.623 -22.8137" id="C0_88_9be1a0bfb6"/>
     <path d="
M287.648 -22.8137
L289.673 -22.8137
L289.673 -87.6137
L287.648 -87.6137
L287.648 -22.8137" id="C0_89_d55f3e9f1a"/>
     <path d="
M289.673 -22.8137
L291.698 -22.8137
L291.698 -87.6137
L289.673 -87.6137
L289.673 -22.8137" id="C0_8a_f9a041107e"/>
     <path d="
M291.698 -22.8137
L293.723 -22.8137
L293.723 -87.6137
L291.698 -87.6137
L291.698 -22.8137" id="C0_8b_f3b06be7db"/>
     <path d="
M293.723 -22.8137
L295.748 -22.8137
L295.748 -87.6137
L293.723 -87.6137
L293.723 -22.8137" id="C0_8c_555c484db3"/>
     <path d="
M295.748 -22.8137
L297.773 -22.8137
L297.773 -87.6137
L295.748 -87.6137
L295.748 -22.8137" id="C0_8d_91072ebcfd"/>
     <path d="
M297.773 -22.8137
L299.798 -22.8137
L299.798 -87.6137
L297.773 -87.6137
L297.773 -22.8137" id="C0_8e_f49b7b93a6"/>
     <path d="
M299.798 -22.8137
L301.823 -22.8137
L301.823 -87.6137
L299.798 -87.6137
L299.798 -22.8137" id="C0_8f_7382dda38b"/>
     <path d="
M301.823 -22.8137
L303.848 -22.8137
L303.848 -87.6137
L301.823 -87.6137
L301.823 -22.8137" id="C0_90_10ececcf87"/>
     <path d="
M303.848 -22.8137
L305.873 -22.8137
L305.873 -87.6137
L303.848 -87.6137
L303.848 -22.8137" id="C0_91_65d4ea9bcc"/>
     <path d="
M305.873 -22.8137
L307.898 -22.8137
L307.898 -87.6137
L305.873 -87.6137
L305.873 -22.8137" id="C0_92_17c0611314"/>
     <path d="
M307.898 -22.8137
L309.923 -22.8137
L309.923 -87.6137
L307.898 -87.6137
L307.898 -22.8137" id="C0_93_9481e5bab2"/>
     <path d="
M309.923 -22.8137
L311.948 -22.8137
L311.948 -87.6137
L309.923 -87.6137
L309.923 -22.8137" id="C0_94_2e25ec838c"/>
     <path d="
M311.948 -22.8137
L313.973 -22.8137
L313.973 -87.6137
L311.948 -87.6137
L311.948 -22.8137" id="C0_95_b8c4bd3c1c"/>
     <path d="
M313.973 -22.8137
L315.998 -22.8137
L315.998 -87.6137
L313.973 -87.6137
L313.973 -22.8137" id="C0_96_5d9e8c6a38"/>
     <path d="
M315.998 -22.8137
L318.023 -22.8137
L318.023 -87.6137
L315.998 -87.6137
L315.998 -22.8137" id="C0_97_d65e596e0c"/>
     <path d="
M318.023 -22.8137
L320.048 -22.8137
L320.048 -87.6137
L318.023 -87.6137
L318.023 -22.8137" id="C0_98_272f65fc2f"/>
     <path d="
M320.048 -22.8137
L322.073 -22.8137
L322.073 -87.6137
L320.048 -87.6137
L320.048 -22.8137" id="C0_99_e032ddd25b"/>
     <path d="
M322.073 -22.8137
L324.098 -22.8137
L324.098 -87.6137
L322.073 -87.6137
L322.073 -22.8137" id="C0_9a_3c5c046670"/>
     <path d="
M324.098 -22.8137
L326.123 -22.8137
L326.123 -87.6137
L324.098 -87.6137
L324.098 -22.8137" id="C0_9b_c1c544ac1a"/>
     <path d="
M326.123 -22.8137
L328.148 -22.8137
L328.148 -87.6137
L326.123 -87.6137
L326.123 -22.8137" id="C0_9c_13ae11eee1"/>
     <path d="
M328.148 -22.8137
L330.173 -22.8137
L330.173 -87.6137
L328.148 -87.6137
L328.148 -22.8137" id="C0_9d_75c4182699"/>
     <path d="
M330.173 -22.8137
L332.198 -22.8137
L332.198 -87.6137
L330.173 -87.6137
L330.173 -22.8137" id="C0_9e_16a917730c"/>
     <path d="
M332.198 -22.8137
L334.223 -22.8137
L334.223 -87.6137
L332.198 -87.6137
L332.198 -22.8137" id="C0_9f_1d7eade377"/>
     <path d="
M334.223 -22.8137
L336.248 -22.8137
L336.248 -87.6137
L334.223 -87.6137
L334.223 -22.8137" id="C0_a0_7eeb4c83d9"/>
     <path d="
M336.248 -22.8137
L338.273 -22.8137
L338.273 -87.6137
L336.248 -87.6137
L336.248 -22.8137" id="C0_a1_4da9b3e9cb"/>
     <path d="
M338.273 -22.8137
L340.298 -22.8137
L340.298 -87.6137
L338.273 -87.6137
L338.273 -22.8137" id="C0_a2_50cccf232f"/>
     <path d="
M340.298 -22.8137
L342.323 -22.8137
L342.323 -87.6137
L340.298 -87.6137
L340.298 -22.8137" id="C0_a3_d532886919"/>
     <path d="
M342.323 -22.8137
L344.348 -22.8137
L344.348 -87.6137
L342.323 -87.6137
L342.323 -22.8137" id="C0_a4_dc75b41888"/>
     <path d="
M344.348 -22.8137
L346.373 -22.8137
L346.373 -87.6137
L344.348 -87.6137
L344.348 -22.8137" id="C0_a5_19eb50f2c0"/>
     <path d="
M346.373 -22.8137
L348.398 -22.8137
L348.398 -87.6137
L346.373 -87.6137
L346.373 -22.8137" id="C0_a6_19364eff30"/>
     <path d="
M348.398 -22.8137
L350.423 -22.8137
L350.423 -87.6137
L348.398 -87.6137
L348.398 -22.8137" id="C0_a7_eb5f177cfc"/>
     <path d="
M350.423 -22.8137
L352.448 -22.8137
L352.448 -87.6137
L350.423 -87.6137
L350.423 -22.8137" id="C0_a8_64b67f0ba5"/>
     <path d="
M352.448 -22.8137
L354.473 -22.8137
L354.473 -87.6137
L352.448 -87.6137
L352.448 -22.8137" id="C0_a9_9b6c359bf4"/>
     <path d="
M354.473 -22.8137
L356.498 -22.8137
L356.498 -87.6137
L354.473 -87.6137
L354.473 -22.8137" id="C0_aa_605c2e968f"/>
     <path d="
M356.498 -22.8137
L358.523 -22.8137
L358.523 -87.6137
L356.498 -87.6137
L356.498 -22.8137" id="C0_ab_e7e525471b"/>
     <path d="
M358.523 -22.8137
L360.548 -22.8137
L360.548 -87.6137
L358.523 -87.6137
L358.523 -22.8137" id="C0_ac_f9ae3becf6"/>
     <path d="
M360.548 -22.8137
L362.573 -22.8137
L362.573 -87.6137
L360.548 -87.6137
L360.548 -22.8137" id="C0_ad_7b9958444f"/>
     <path d="
M362.573 -22.8137
L364.598 -22.8137
L364.598 -87.6137
L362.573 -87.6137
L362.573 -22.8137" id="C0_ae_d5674975b7"/>
     <path d="
M364.598 -22.8137
L366.623 -22.8137
L366.623 -87.6137
L364.598 -87.6137
L364.598 -22.8137" id="C0_af_103a56e2b6"/>
     <path d="
M366.623 -22.8137
L368.648 -22.8137
L368.648 -87.6137
L366.623 -87.6137
L366.623 -22.8137" id="C0_b0_44d7661df3"/>
     <path d="
M368.648 -22.8137
L370.673 -22.8137
L370.673 -87.6137
L368.648 -87.6137
L368.648 -22.8137" id="C0_b1_2a5aaeda55"/>
     <path d="
M370.673 -22.8137
L372.698 -22.8137
L372.698 -87.6137
L370.673 -87.6137
L370.673 -22.8137" id="C0_b2_7a78324773"/>
     <path d="
M372.698 -22.8137
L374.723 -22.8137
L374.723 -87.6137
L372.698 -87.6137
L372.698 -22.8137" id="C0_b3_f24e6dc9a0"/>
     <path d="
M374.723 -22.8137
L376.748 -22.8137
L376.748 -87.6137
L374.723 -87.6137
L374.723 -22.8137" id="C0_b4_c71a88560f"/>
     <path d="
M376.748 -22.8137
L378.773 -22.8137
L378.773 -87.6137
L376.748 -87.6137
L376.748 -22.8137" id="C0_b5_8786bd6f60"/>
     <path d="
M378.773 -22.8137
L380.798 -22.8137
L380.798 -87.6137
L378.773 -87.6137
L378.773 -22.8137" id="C0_b6_7427c28c85"/>
     <path d="
M380.798 -22.8137
L382.823 -22.8137
L382.823 -87.6137
L380.798 -87.6137
L380.798 -22.8137" id="C0_b7_59bd329eae"/>
     <path d="
M382.823 -22.8137
L384.848 -22.8137
L384.848 -87.6137
L382.823 -87.6137
L382.823 -22.8137" id="C0_b8_895e28b2b4"/>
     <path d="
M384.848 -22.8137
L386.873 -22.8137
L386.873 -87.6137
L384.848 -87.6137
L384.848 -22.8137" id="C0_b9_07ed1fa3dc"/>
     <path d="
M386.873 -22.8137
L388.898 -22.8137
L388.898 -87.6137
L386.873 -87.6137
L386.873 -22.8137" id="C0_ba_9cce92c2af"/>
     <path d="
M388.898 -22.8137
L390.923 -22.8137
L390.923 -87.6137
L388.898 -87.6137
L388.898 -22.8137" id="C0_bb_aed98ac01b"/>
     <path d="
M390.923 -22.8137
L392.948 -22.8137
L392.948 -87.6137
L390.923 -87.6137
L390.923 -22.8137" id="C0_bc_7436b3e860"/>
     <path d="
M392.948 -22.8137
L394.973 -22.8137
L394.973 -87.6137
L392.948 -87.6137
L392.948 -22.8137" id="C0_bd_ea266acaaf"/>
     <path d="
M394.973 -22.8137
L396.998 -22.8137
L396.998 -87.6137
L394.973 -87.6137
L394.973 -22.8137" id="C0_be_5605ee3d68"/>
     <path d="
M396.998 -22.8137
L399.023 -22.8137
L399.023 -87.6137
L396.998 -87.6137
L396.998 -22.8137" id="C0_bf_fadef24193"/>
     <path d="
M399.023 -22.8137
L401.048 -22.8137
L401.048 -87.6137
L399.023 -87.6137
L399.023 -22.8137" id="C0_c0_049e8d8e77"/>
     <path d="
M401.048 -22.8137
L403.073 -22.8137
L403.073 -87.6137
L401.048 -87.6137
L401.048 -22.8137" id="C0_c1_a05a95703b"/>
     <path d="
M403.073 -22.8137
L405.098 -22.8137
L405.098 -87.6137
L403.073 -87.6137
L403.073 -22.8137" id="C0_c2_8a7f91ebfb"/>
     <path d="
M405.098 -22.8137
L407.123 -22.8137
L407.123 -87.6137
L405.098 -87.6137
L405.098 -22.8137" id="C0_c3_112c62aa8a"/>
     <path d="
M407.123 -22.8137
L409.148 -22.8137
L409.148 -87.6137
L407.123 -87.6137
L407.123 -22.8137" id="C0_c4_3cf121d3fc"/>
     <path d="
M409.148 -22.8137
L411.173 -22.8137
L411.173 -87.6137
L409.148 -87.6137
L409.148 -22.8137" id="C0_c5_1918d59e5d"/>
     <path d="
M411.173 -22.8137
L413.198 -22.8137
L413.198 -87.6137
L411.173 -87.6137
L411.173 -22.8137" id="C0_c6_0fd92119a1"/>
     <path d="
M413.198 -22.8137
L415.223 -22.8137
L415.223 -87.6137
L413.198 -87.6137
L413.198 -22.8137" id="C0_c7_4d6bcd507c"/>
     <path d="
M415.223 -22.8137
L417.248 -22.8137
L417.248 -87.6137
L415.223 -87.6137
L415.223 -22.8137" id="C0_c8_8c6358884b"/>
     <path d="
M417.248 -22.8137
L419.273 -22.8137
L419.273 -87.6137
L417.248 -87.6137
L417.248 -22.8137" id="C0_c9_11b5614cf6"/>
     <path d="
M419.273 -22.8137
L421.298 -22.8137
L421.298 -87.6137
L419.273 -87.6137
L419.273 -22.8137" id="C0_ca_0a846218a9"/>
     <path d="
M421.298 -22.8137
L423.323 -22.8137
L423.323 -87.6137
L421.298 -87.6137
L421.298 -22.8137" id="C0_cb_eaacdc3921"/>
     <path d="
M423.323 -22.8137
L425.348 -22.8137
L425.348 -87.6137
L423.323 -87.6137
L423.323 -22.8137" id="C0_cc_0e9bef4662"/>
     <path d="
M425.348 -22.8137
L427.373 -22.8137
L427.373 -87.6137
L425.348 -87.6137
L425.348 -22.8137" id="C0_cd_9ef04b603c"/>
     <path d="
M427.373 -22.8137
L429.398 -22.8137
L429.398 -87.6137
L427.373 -87.6137
L427.373 -22.8137" id="C0_ce_795ec0aa2a"/>
     <path d="
M429.398 -22.8137
L431.423 -22.8137
L431.423 -87.6137
L429.398 -87.6137
L429.398 -22.8137" id="C0_cf_8b6045bc8e"/>
     <path d="
M431.423 -22.8137
L433.448 -22.8137
L433.448 -87.6137
L431.423 -87.6137
L431.423 -22.8137" id="C0_d0_71a4ab8709"/>
     <path d="
M433.448 -22.8137
L435.473 -22.8137
L435.473 -87.6137
L433.448 -87.6137
L433.448 -22.8137" id="C0_d1_d17a53a367"/>
     <path d="
M435.473 -22.8137
L437.498 -22.8137
L437.498 -87.6137
L435.473 -87.6137
L435.473 -22.8137" id="C0_d2_2738cef437"/>
     <path d="
M437.498 -22.8137
L439.523 -22.8137
L439.523 -87.6137
L437.498 -87.6137
L437.498 -22.8137" id="C0_d3_f8d046fa25"/>
     <path d="
M439.523 -22.8137
L441.548 -22.8137
L441.548 -87.6137
L439.523 -87.6137
L439.523 -22.8137" id="C0_d4_32bf541c93"/>
     <path d="
M441.548 -22.8137
L443.573 -22.8137
L443.573 -87.6137
L441.548 -87.6137
L441.548 -22.8137" id="C0_d5_167b9e62cd"/>
     <path d="
M443.573 -22.8137
L445.598 -22.8137
L445.598 -87.6137
L443.573 -87.6137
L443.573 -22.8137" id="C0_d6_37626ff1bb"/>
     <path d="
M445.598 -22.8137
L447.623 -22.8137
L447.623 -87.6137
L445.598 -87.6137
L445.598 -22.8137" id="C0_d7_0139c0e566"/>
     <path d="
M447.623 -22.8137
L449.648 -22.8137
L449.648 -87.6137
L447.623 -87.6137
L447.623 -22.8137" id="C0_d8_d30ddc9177"/>
     <path d="
M449.648 -22.8137
L451.673 -22.8137
L451.673 -87.6137
L449.648 -87.6137
L449.648 -22.8137" id="C0_d9_2872537540"/>
     <path d="
M451.673 -22.8137
L453.698 -22.8137
L453.698 -87.6137
L451.673 -87.6137
L451.673 -22.8137" id="C0_da_77a2cb5581"/>
     <path d="
M453.698 -22.8137
L455.723 -22.8137
L455.723 -87.6137
L453.698 -87.6137
L453.698 -22.8137" id="C0_db_f709aff801"/>
     <path d="
M455.723 -22.8137
L457.748 -22.8137
L457.748 -87.6137
L455.723 -87.6137
L455.723 -22.8137" id="C0_dc_57eb698b1c"/>
     <path d="
M457.748 -22.8137
L459.773 -22.8137
L459.773 -87.6137
L457.748 -87.6137
L457.748 -22.8137" id="C0_dd_26179c7275"/>
     <path d="
M459.773 -22.8137
L461.798 -22.8137
L461.798 -87.6137
L459.773 -87.6137
L459.773 -22.8137" id="C0_de_394e5f2651"/>
     <path d="
M461.798 -22.8137
L463.823 -22.8137
L463.823 -87.6137
L461.798 -87.6137
L461.798 -22.8137" id="C0_df_fc3c045e42"/>
     <path d="
M463.823 -22.8137
L465.848 -22.8137
L465.848 -87.6137
L463.823 -87.6137
L463.823 -22.8137" id="C0_e0_e8cffdda75"/>
     <path d="
M465.848 -22.8137
L467.873 -22.8137
L467.873 -87.6137
L465.848 -87.6137
L465.848 -22.8137" id="C0_e1_83755a7b16"/>
     <path d="
M467.873 -22.8137
L469.898 -22.8137
L469.898 -87.6137
L467.873 -87.6137
L467.873 -22.8137" id="C0_e2_fae1349315"/>
     <path d="
M469.898 -22.8137
L471.923 -22.8137
L471.923 -87.6137
L469.898 -87.6137
L469.898 -22.8137" id="C0_e3_36184c49a3"/>
     <path d="
M471.923 -22.8137
L473.948 -22.8137
L473.948 -87.6137
L471.923 -87.6137
L471.923 -22.8137" id="C0_e4_3baf0239c0"/>
     <path d="
M473.948 -22.8137
L475.973 -22.8137
L475.973 -87.6137
L473.948 -87.6137
L473.948 -22.8137" id="C0_e5_6a6b76af49"/>
     <path d="
M475.973 -22.8137
L477.998 -22.8137
L477.998 -87.6137
L475.973 -87.6137
L475.973 -22.8137" id="C0_e6_588d0b60a9"/>
     <path d="
M477.998 -22.8137
L480.023 -22.8137
L480.023 -87.6137
L477.998 -87.6137
L477.998 -22.8137" id="C0_e7_73bcd59023"/>
     <path d="
M480.023 -22.8137
L482.048 -22.8137
L482.048 -87.6137
L480.023 -87.6137
L480.023 -22.8137" id="C0_e8_ff19f9200d"/>
     <path d="
M482.048 -22.8137
L484.073 -22.8137
L484.073 -87.6137
L482.048 -87.6137
L482.048 -22.8137" id="C0_e9_dc13a9dca3"/>
     <path d="
M484.073 -22.8137
L486.098 -22.8137
L486.098 -87.6137
L484.073 -87.6137
L484.073 -22.8137" id="C0_ea_3a822315ca"/>
     <path d="
M486.098 -22.8137
L488.123 -22.8137
L488.123 -87.6137
L486.098 -87.6137
L486.098 -22.8137" id="C0_eb_20b2483618"/>
     <path d="
M488.123 -22.8137
L490.148 -22.8137
L490.148 -87.6137
L488.123 -87.6137
L488.123 -22.8137" id="C0_ec_acfd3ea190"/>
     <path d="
M490.148 -22.8137
L492.173 -22.8137
L492.173 -87.6137
L490.148 -87.6137
L490.148 -22.8137" id="C0_ed_1099a56313"/>
     <path d="
M492.173 -22.8137
L494.198 -22.8137
L494.198 -87.6137
L492.173 -87.6137
L492.173 -22.8137" id="C0_ee_c3b1b93ab8"/>
     <path d="
M494.198 -22.8137
L496.223 -22.8137
L496.223 -87.6137
L494.198 -87.6137
L494.198 -22.8137" id="C0_ef_c179a031ba"/>
     <path d="
M496.223 -22.8137
L498.248 -22.8137
L498.248 -87.6137
L496.223 -87.6137
L496.223 -22.8137" id="C0_f0_9289f62c79"/>
     <path d="
M498.248 -22.8137
L500.273 -22.8137
L500.273 -87.6137
L498.248 -87.6137
L498.248 -22.8137" id="C0_f1_7c2bd6c250"/>
     <path d="
M500.273 -22.8137
L502.298 -22.8137
L502.298 -87.6137
L500.273 -87.6137
L500.273 -22.8137" id="C0_f2_3dbd910017"/>
     <path d="
M502.298 -22.8137
L504.323 -22.8137
L504.323 -87.6137
L502.298 -87.6137
L502.298 -22.8137" id="C0_f3_1c4a829356"/>
     <path d="
M504.323 -22.8137
L506.348 -22.8137
L506.348 -87.6137
L504.323 -87.6137
L504.323 -22.8137" id="C0_f4_6ddffddc57"/>
     <path d="
M506.348 -22.8137
L508.373 -22.8137
L508.373 -87.6137
L506.348 -87.6137
L506.348 -22.8137" id="C0_f5_38df9f666b"/>
     <path d="
M508.373 -22.8137
L510.398 -22.8137
L510.398 -87.6137
L508.373 -87.6137
L508.373 -22.8137" id="C0_f6_a361682ea2"/>
     <path d="
M510.398 -22.8137
L512.423 -22.8137
L512.423 -87.6137
L510.398 -87.6137
L510.398 -22.8137" id="C0_f7_7bc16aa8fb"/>
     <path d="
M512.423 -22.8137
L514.448 -22.8137
L514.448 -87.6137
L512.423 -87.6137
L512.423 -22.8137" id="C0_f8_c28c47171a"/>
     <path d="
M514.448 -22.8137
L516.473 -22.8137
L516.473 -87.6137
L514.448 -87.6137
L514.448 -22.8137" id="C0_f9_c868184825"/>
     <path d="
M516.473 -22.8137
L518.498 -22.8137
L518.498 -87.6137
L516.473 -87.6137
L516.473 -22.8137" id="C0_fa_a25b36c91d"/>
     <path d="
M518.498 -22.8137
L520.523 -22.8137
L520.523 -87.6137
L518.498 -87.6137
L518.498 -22.8137" id="C0_fb_b434cd4ad4"/>
     <path d="
M520.523 -22.8137
L522.548 -22.8137
L522.548 -87.6137
L520.523 -87.6137
L520.523 -22.8137" id="C0_fc_0ce3a2b913"/>
     <path d="
M522.548 -22.8137
L524.573 -22.8137
L524.573 -87.6137
L522.548 -87.6137
L522.548 -22.8137" id="C0_fd_eb07bd2c1c"/>
     <path d="
M524.573 -22.8137
L526.598 -22.8137
L526.598 -87.6137
L524.573 -87.6137
L524.573 -22.8137" id="C0_fe_4ea55d0559"/>
     <path d="
M526.598 -22.8137
L528.623 -22.8137
L528.623 -87.6137
L526.598 -87.6137
L526.598 -22.8137" id="C0_ff_b54da65e43"/>
    </defs>
    <g clip-path="url(#pa434ee1f66)">
     <use style="fill:#000080;" x="0.0" xlink:href="#C0_0_7d2f5cb874" y="94.81375"/>
    </g>
    <g clip-path="url(#pa434ee1f66)">
     <use style="fill:#000084;" x="0.0" xlink:href="#C0_1_121ccd2dc1" y="94.81375"/>
    </g>
    <g clip-path="url(#pa434ee1f66)">
     <use style="fill:#000089;" x="0.0" xlink:href="#C0_2_cb3835ccdb" y="94.81375"/>
    </g>
    <g clip-path="url(#pa434ee1f66)">
     <use style="fill:#00008d;" x="0.0" xlink:href="#C0_3_8b7a608771" y="94.81375"/>
    </g>
    <g clip-path="url(#pa434ee1f66)">
     <use style="fill:#000092;" x="0.0" xlink:href="#C0_4_dfb646c977" y="94.81375"/>
    </g>
    <g clip-path="url(#pa434ee1f66)">
     <use style="fill:#000096;" x="0.0" xlink:href="#C0_5_b165278000" y="94.81375"/>
    </g>
    <g clip-path="url(#pa434ee1f66)">
     <use style="fill:#00009b;" x="0.0" xlink:href="#C0_6_35587e9bf4" y="94.81375"/>
    </g>
    <g clip-path="url(#pa434ee1f66)">
     <use style="fill:#00009f;" x="0.0" xlink:href="#C0_7_0d53c3f156" y="94.81375"/>
    </g>
    <g clip-path="url(#pa434ee1f66)">
     <use style="fill:#0000a4;" x="0.0" xlink:href="#C0_8_901abf3536" y="94.81375"/>
    </g>
    <g clip-path="url(#pa434ee1f66)">
     <use style="fill:#0000a8;" x="0.0" xlink:href="#C0_9_fadf80ef8d" y="94.81375"/>
    </g>
    <g clip-path="url(#pa434ee1f66)">
     <use style="fill:#0000ad;" x="0.0" xlink:href="#C0_a_57371ac2b0" y="94.81375"/>
    </g>
    <g clip-path="url(#pa434ee1f66)">
     <use style="fill:#0000b2;" x="0.0" xlink:href="#C0_b_57ba046f66" y="94.81375"/>
    </g>
    <g clip-path="url(#pa434ee1f66)">
     <use style="fill:#0000b6;" x="0.0" xlink:href="#C0_c_f17539f5ea" y="94.81375"/>
    </g>
    <g clip-path="url(#pa434ee1f66)">
     <use style="fill:#0000bb;" x="0.0" xlink:href="#C0_d_9944719c3f" y="94.81375"/>
    </g>
    <g clip-path="url(#pa434ee1f66)">
     <use style="fill:#0000bf;" x="0.0" xlink:href="#C0_e_6576ce690a" y="94.81375"/>
    </g>
    <g clip-path="url(#pa434ee1f66)">
     <use style="fill:#0000c4;" x="0.0" xlink:href="#C0_f_afc37eedb0" y="94.81375"/>
    </g>
    <g clip-path="url(#pa434ee1f66)">
     <use style="fill:#0000c8;" x="0.0" xlink:href="#C0_10_cb4393c917" y="94.81375"/>
    </g>
    <g clip-path="url(#pa434ee1f66)">
     <use style="fill:#0000cd;" x="0.0" xlink:href="#C0_11_0275b80b15" y="94.81375"/>
    </g>
    <g clip-path="url(#pa434ee1f66)">
     <use style="fill:#0000d1;" x="0.0" xlink:href="#C0_12_9bc2ba78bb" y="94.81375"/>
    </g>
    <g clip-path="url(#pa434ee1f66)">
     <use style="fill:#0000d6;" x="0.0" xlink:href="#C0_13_e247161b74" y="94.81375"/>
    </g>
    <g clip-path="url(#pa434ee1f66)">
     <use style="fill:#0000da;" x="0.0" xlink:href="#C0_14_dc426cb283" y="94.81375"/>
    </g>
    <g clip-path="url(#pa434ee1f66)">
     <use style="fill:#0000df;" x="0.0" xlink:href="#C0_15_221153cb93" y="94.81375"/>
    </g>
    <g clip-path="url(#pa434ee1f66)">
     <use style="fill:#0000e3;" x="0.0" xlink:href="#C0_16_13b53551a0" y="94.81375"/>
    </g>
    <g clip-path="url(#pa434ee1f66)">
     <use style="fill:#0000e8;" x="0.0" xlink:href="#C0_17_4b050b0054" y="94.81375"/>
    </g>
    <g clip-path="url(#pa434ee1f66)">
     <use style="fill:#0000ed;" x="0.0" xlink:href="#C0_18_3af776ea62" y="94.81375"/>
    </g>
    <g clip-path="url(#pa434ee1f66)">
     <use style="fill:#0000f1;" x="0.0" xlink:href="#C0_19_1ab5880a55" y="94.81375"/>
    </g>
    <g clip-path="url(#pa434ee1f66)">
     <use style="fill:#0000f6;" x="0.0" xlink:href="#C0_1a_866dbd69ae" y="94.81375"/>
    </g>
    <g clip-path="url(#pa434ee1f66)">
     <use style="fill:#0000fa;" x="0.0" xlink:href="#C0_1b_723c1714d1" y="94.81375"/>
    </g>
    <g clip-path="url(#pa434ee1f66)">
     <use style="fill:#0000ff;" x="0.0" xlink:href="#C0_1c_fe1e74f3ba" y="94.81375"/>
    </g>
    <g clip-path="url(#pa434ee1f66)">
     <use style="fill:#0000ff;" x="0.0" xlink:href="#C0_1d_5eaf75da4c" y="94.81375"/>
    </g>
    <g clip-path="url(#pa434ee1f66)">
     <use style="fill:#0000ff;" x="0.0" xlink:href="#C0_1e_ece8842fdc" y="94.81375"/>
    </g>
    <g clip-path="url(#pa434ee1f66)">
     <use style="fill:#0000ff;" x="0.0" xlink:href="#C0_1f_ba75b0adbe" y="94.81375"/>
    </g>
    <g clip-path="url(#pa434ee1f66)">
     <use style="fill:#0000ff;" x="0.0" xlink:href="#C0_20_c4a974c083" y="94.81375"/>
    </g>
    <g clip-path="url(#pa434ee1f66)">
     <use style="fill:#0004ff;" x="0.0" xlink:href="#C0_21_46b25d49bb" y="94.81375"/>
    </g>
    <g clip-path="url(#pa434ee1f66)">
     <use style="fill:#0008ff;" x="0.0" xlink:href="#C0_22_aa0920d09b" y="94.81375"/>
    </g>
    <g clip-path="url(#pa434ee1f66)">
     <use style="fill:#000cff;" x="0.0" xlink:href="#C0_23_f903ff29e3" y="94.81375"/>
    </g>
    <g clip-path="url(#pa434ee1f66)">
     <use style="fill:#0010ff;" x="0.0" xlink:href="#C0_24_c43b89fa9b" y="94.81375"/>
    </g>
    <g clip-path="url(#pa434ee1f66)">
     <use style="fill:#0014ff;" x="0.0" xlink:href="#C0_25_8daa3d7bec" y="94.81375"/>
    </g>
    <g clip-path="url(#pa434ee1f66)">
     <use style="fill:#0018ff;" x="0.0" xlink:href="#C0_26_df015f7552" y="94.81375"/>
    </g>
    <g clip-path="url(#pa434ee1f66)">
     <use style="fill:#001cff;" x="0.0" xlink:href="#C0_27_f0e733ea1e" y="94.81375"/>
    </g>
    <g clip-path="url(#pa434ee1f66)">
     <use style="fill:#0020ff;" x="0.0" xlink:href="#C0_28_62fe406e6b" y="94.81375"/>
    </g>
    <g clip-path="url(#pa434ee1f66)">
     <use style="fill:#0024ff;" x="0.0" xlink:href="#C0_29_2b8f720ddf" y="94.81375"/>
    </g>
    <g clip-path="url(#pa434ee1f66)">
     <use style="fill:#0028ff;" x="0.0" xlink:href="#C0_2a_c0b6b81e6f" y="94.81375"/>
    </g>
    <g clip-path="url(#pa434ee1f66)">
     <use style="fill:#002cff;" x="0.0" xlink:href="#C0_2b_31938f58dd" y="94.81375"/>
    </g>
    <g clip-path="url(#pa434ee1f66)">
     <use style="fill:#0030ff;" x="0.0" xlink:href="#C0_2c_8978606420" y="94.81375"/>
    </g>
    <g clip-path="url(#pa434ee1f66)">
     <use style="fill:#0034ff;" x="0.0" xlink:href="#C0_2d_544c1daefb" y="94.81375"/>
    </g>
    <g clip-path="url(#pa434ee1f66)">
     <use style="fill:#0038ff;" x="0.0" xlink:href="#C0_2e_f724e66a48" y="94.81375"/>
    </g>
    <g clip-path="url(#pa434ee1f66)">
     <use style="fill:#003cff;" x="0.0" xlink:href="#C0_2f_4467398fdf" y="94.81375"/>
    </g>
    <g clip-path="url(#pa434ee1f66)">
     <use style="fill:#0040ff;" x="0.0" xlink:href="#C0_30_86169a1e90" y="94.81375"/>
    </g>
    <g clip-path="url(#pa434ee1f66)">
     <use style="fill:#0044ff;" x="0.0" xlink:href="#C0_31_28a2d4be19" y="94.81375"/>
    </g>
    <g clip-path="url(#pa434ee1f66)">
     <use style="fill:#0048ff;" x="0.0" xlink:href="#C0_32_1cfb6291a2" y="94.81375"/>
    </g>
    <g clip-path="url(#pa434ee1f66)">
     <use style="fill:#004cff;" x="0.0" xlink:href="#C0_33_8e7d70f1cf" y="94.81375"/>
    </g>
    <g clip-path="url(#pa434ee1f66)">
     <use style="fill:#0050ff;" x="0.0" xlink:href="#C0_34_8e5714d122" y="94.81375"/>
    </g>
    <g clip-path="url(#pa434ee1f66)">
     <use style="fill:#0054ff;" x="0.0" xlink:href="#C0_35_0a5e984523" y="94.81375"/>
    </g>
    <g clip-path="url(#pa434ee1f66)">
     <use style="fill:#0058ff;" x="0.0" xlink:href="#C0_36_171aab45d8" y="94.81375"/>
    </g>
    <g clip-path="url(#pa434ee1f66)">
     <use style="fill:#005cff;" x="0.0" xlink:href="#C0_37_043adcfd7a" y="94.81375"/>
    </g>
    <g clip-path="url(#pa434ee1f66)">
     <use style="fill:#0060ff;" x="0.0" xlink:href="#C0_38_c5893affa7" y="94.81375"/>
    </g>
    <g clip-path="url(#pa434ee1f66)">
     <use style="fill:#0064ff;" x="0.0" xlink:href="#C0_39_2c592846a2" y="94.81375"/>
    </g>
    <g clip-path="url(#pa434ee1f66)">
     <use style="fill:#0068ff;" x="0.0" xlink:href="#C0_3a_787911ec65" y="94.81375"/>
    </g>
    <g clip-path="url(#pa434ee1f66)">
     <use style="fill:#006cff;" x="0.0" xlink:href="#C0_3b_5d9cc37af0" y="94.81375"/>
    </g>
    <g clip-path="url(#pa434ee1f66)">
     <use style="fill:#0070ff;" x="0.0" xlink:href="#C0_3c_9302ce6c3e" y="94.81375"/>
    </g>
    <g clip-path="url(#pa434ee1f66)">
     <use style="fill:#0074ff;" x="0.0" xlink:href="#C0_3d_cf4bf6dda4" y="94.81375"/>
    </g>
    <g clip-path="url(#pa434ee1f66)">
     <use style="fill:#0078ff;" x="0.0" xlink:href="#C0_3e_d1d207039c" y="94.81375"/>
    </g>
    <g clip-path="url(#pa434ee1f66)">
     <use style="fill:#007cff;" x="0.0" xlink:href="#C0_3f_431d39ac99" y="94.81375"/>
    </g>
    <g clip-path="url(#pa434ee1f66)">
     <use style="fill:#0080ff;" x="0.0" xlink:href="#C0_40_a334321597" y="94.81375"/>
    </g>
    <g clip-path="url(#pa434ee1f66)">
     <use style="fill:#0084ff;" x="0.0" xlink:href="#C0_41_7bb1d81962" y="94.81375"/>
    </g>
    <g clip-path="url(#pa434ee1f66)">
     <use style="fill:#0088ff;" x="0.0" xlink:href="#C0_42_a2efefb1a9" y="94.81375"/>
    </g>
    <g clip-path="url(#pa434ee1f66)">
     <use style="fill:#008cff;" x="0.0" xlink:href="#C0_43_cf8cc53f9c" y="94.81375"/>
    </g>
    <g clip-path="url(#pa434ee1f66)">
     <use style="fill:#0090ff;" x="0.0" xlink:href="#C0_44_3aa2d454d6" y="94.81375"/>
    </g>
    <g clip-path="url(#pa434ee1f66)">
     <use style="fill:#0094ff;" x="0.0" xlink:href="#C0_45_04dd99b8d0" y="94.81375"/>
    </g>
    <g clip-path="url(#pa434ee1f66)">
     <use style="fill:#0098ff;" x="0.0" xlink:href="#C0_46_8d2a24238e" y="94.81375"/>
    </g>
    <g clip-path="url(#pa434ee1f66)">
     <use style="fill:#009cff;" x="0.0" xlink:href="#C0_47_e0611c9552" y="94.81375"/>
    </g>
    <g clip-path="url(#pa434ee1f66)">
     <use style="fill:#00a0ff;" x="0.0" xlink:href="#C0_48_18457b7c5f" y="94.81375"/>
    </g>
    <g clip-path="url(#pa434ee1f66)">
     <use style="fill:#00a4ff;" x="0.0" xlink:href="#C0_49_6f35890857" y="94.81375"/>
    </g>
    <g clip-path="url(#pa434ee1f66)">
     <use style="fill:#00a8ff;" x="0.0" xlink:href="#C0_4a_7ecb7d966a" y="94.81375"/>
    </g>
    <g clip-path="url(#pa434ee1f66)">
     <use style="fill:#00acff;" x="0.0" xlink:href="#C0_4b_5bf23862fd" y="94.81375"/>
    </g>
    <g clip-path="url(#pa434ee1f66)">
     <use style="fill:#00b0ff;" x="0.0" xlink:href="#C0_4c_e9e515ebde" y="94.81375"/>
    </g>
    <g clip-path="url(#pa434ee1f66)">
     <use style="fill:#00b4ff;" x="0.0" xlink:href="#C0_4d_61e38ca294" y="94.81375"/>
    </g>
    <g clip-path="url(#pa434ee1f66)">
     <use style="fill:#00b8ff;" x="0.0" xlink:href="#C0_4e_eb1ebe7ab2" y="94.81375"/>
    </g>
    <g clip-path="url(#pa434ee1f66)">
     <use style="fill:#00bcff;" x="0.0" xlink:href="#C0_4f_b914a02df6" y="94.81375"/>
    </g>
    <g clip-path="url(#pa434ee1f66)">
     <use style="fill:#00c0ff;" x="0.0" xlink:href="#C0_50_266b1c9606" y="94.81375"/>
    </g>
    <g clip-path="url(#pa434ee1f66)">
     <use style="fill:#00c4ff;" x="0.0" xlink:href="#C0_51_497dd603f9" y="94.81375"/>
    </g>
    <g clip-path="url(#pa434ee1f66)">
     <use style="fill:#00c8ff;" x="0.0" xlink:href="#C0_52_a631cdd935" y="94.81375"/>
    </g>
    <g clip-path="url(#pa434ee1f66)">
     <use style="fill:#00ccff;" x="0.0" xlink:href="#C0_53_c47d29ef95" y="94.81375"/>
    </g>
    <g clip-path="url(#pa434ee1f66)">
     <use style="fill:#00d0ff;" x="0.0" xlink:href="#C0_54_cb8e0d43c5" y="94.81375"/>
    </g>
    <g clip-path="url(#pa434ee1f66)">
     <use style="fill:#00d4ff;" x="0.0" xlink:href="#C0_55_11375dff8d" y="94.81375"/>
    </g>
    <g clip-path="url(#pa434ee1f66)">
     <use style="fill:#00d8ff;" x="0.0" xlink:href="#C0_56_8bf974f746" y="94.81375"/>
    </g>
    <g clip-path="url(#pa434ee1f66)">
     <use style="fill:#00dcfe;" x="0.0" xlink:href="#C0_57_ebd1d9f9aa" y="94.81375"/>
    </g>
    <g clip-path="url(#pa434ee1f66)">
     <use style="fill:#00e0fb;" x="0.0" xlink:href="#C0_58_de3314c7b7" y="94.81375"/>
    </g>
    <g clip-path="url(#pa434ee1f66)">
     <use style="fill:#00e4f8;" x="0.0" xlink:href="#C0_59_c97ce70990" y="94.81375"/>
    </g>
    <g clip-path="url(#pa434ee1f66)">
     <use style="fill:#02e8f4;" x="0.0" xlink:href="#C0_5a_6620749579" y="94.81375"/>
    </g>
    <g clip-path="url(#pa434ee1f66)">
     <use style="fill:#06ecf1;" x="0.0" xlink:href="#C0_5b_9e8e259c00" y="94.81375"/>
    </g>
    <g clip-path="url(#pa434ee1f66)">
     <use style="fill:#09f0ee;" x="0.0" xlink:href="#C0_5c_7639fe47dd" y="94.81375"/>
    </g>
    <g clip-path="url(#pa434ee1f66)">
     <use style="fill:#0cf4eb;" x="0.0" xlink:href="#C0_5d_b48f4106d9" y="94.81375"/>
    </g>
    <g clip-path="url(#pa434ee1f66)">
     <use style="fill:#0ff8e7;" x="0.0" xlink:href="#C0_5e_24f76bc0ca" y="94.81375"/>
    </g>
    <g clip-path="url(#pa434ee1f66)">
     <use style="fill:#13fce4;" x="0.0" xlink:href="#C0_5f_b420a33cb9" y="94.81375"/>
    </g>
    <g clip-path="url(#pa434ee1f66)">
     <use style="fill:#16ffe1;" x="0.0" xlink:href="#C0_60_85fb1f742f" y="94.81375"/>
    </g>
    <g clip-path="url(#pa434ee1f66)">
     <use style="fill:#19ffde;" x="0.0" xlink:href="#C0_61_0bdac1016b" y="94.81375"/>
    </g>
    <g clip-path="url(#pa434ee1f66)">
     <use style="fill:#1cffdb;" x="0.0" xlink:href="#C0_62_6b18420154" y="94.81375"/>
    </g>
    <g clip-path="url(#pa434ee1f66)">
     <use style="fill:#1fffd7;" x="0.0" xlink:href="#C0_63_10a6aacf8c" y="94.81375"/>
    </g>
    <g clip-path="url(#pa434ee1f66)">
     <use style="fill:#23ffd4;" x="0.0" xlink:href="#C0_64_34bd86644f" y="94.81375"/>
    </g>
    <g clip-path="url(#pa434ee1f66)">
     <use style="fill:#26ffd1;" x="0.0" xlink:href="#C0_65_da31eb8c95" y="94.81375"/>
    </g>
    <g clip-path="url(#pa434ee1f66)">
     <use style="fill:#29ffce;" x="0.0" xlink:href="#C0_66_8ebed87727" y="94.81375"/>
    </g>
    <g clip-path="url(#pa434ee1f66)">
     <use style="fill:#2cffca;" x="0.0" xlink:href="#C0_67_d1c8a98623" y="94.81375"/>
    </g>
    <g clip-path="url(#pa434ee1f66)">
     <use style="fill:#30ffc7;" x="0.0" xlink:href="#C0_68_a15933ba2c" y="94.81375"/>
    </g>
    <g clip-path="url(#pa434ee1f66)">
     <use style="fill:#33ffc4;" x="0.0" xlink:href="#C0_69_2f1eb70ab7" y="94.81375"/>
    </g>
    <g clip-path="url(#pa434ee1f66)">
     <use style="fill:#36ffc1;" x="0.0" xlink:href="#C0_6a_711a49b7b4" y="94.81375"/>
    </g>
    <g clip-path="url(#pa434ee1f66)">
     <use style="fill:#39ffbe;" x="0.0" xlink:href="#C0_6b_adba546c8a" y="94.81375"/>
    </g>
    <g clip-path="url(#pa434ee1f66)">
     <use style="fill:#3cffba;" x="0.0" xlink:href="#C0_6c_3f6b9a5fcc" y="94.81375"/>
    </g>
    <g clip-path="url(#pa434ee1f66)">
     <use style="fill:#40ffb7;" x="0.0" xlink:href="#C0_6d_934d72e6b3" y="94.81375"/>
    </g>
    <g clip-path="url(#pa434ee1f66)">
     <use style="fill:#43ffb4;" x="0.0" xlink:href="#C0_6e_5eb8c65b97" y="94.81375"/>
    </g>
    <g clip-path="url(#pa434ee1f66)">
     <use style="fill:#46ffb1;" x="0.0" xlink:href="#C0_6f_f3499960da" y="94.81375"/>
    </g>
    <g clip-path="url(#pa434ee1f66)">
     <use style="fill:#49ffad;" x="0.0" xlink:href="#C0_70_850cb4f0d5" y="94.81375"/>
    </g>
    <g clip-path="url(#pa434ee1f66)">
     <use style="fill:#4dffaa;" x="0.0" xlink:href="#C0_71_99db70095a" y="94.81375"/>
    </g>
    <g clip-path="url(#pa434ee1f66)">
     <use style="fill:#50ffa7;" x="0.0" xlink:href="#C0_72_dc5065a9be" y="94.81375"/>
    </g>
    <g clip-path="url(#pa434ee1f66)">
     <use style="fill:#53ffa4;" x="0.0" xlink:href="#C0_73_cba7ecf399" y="94.81375"/>
    </g>
    <g clip-path="url(#pa434ee1f66)">
     <use style="fill:#56ffa0;" x="0.0" xlink:href="#C0_74_6089e26a83" y="94.81375"/>
    </g>
    <g clip-path="url(#pa434ee1f66)">
     <use style="fill:#5aff9d;" x="0.0" xlink:href="#C0_75_18ab8504d1" y="94.81375"/>
    </g>
    <g clip-path="url(#pa434ee1f66)">
     <use style="fill:#5dff9a;" x="0.0" xlink:href="#C0_76_aeba91e72a" y="94.81375"/>
    </g>
    <g clip-path="url(#pa434ee1f66)">
     <use style="fill:#60ff97;" x="0.0" xlink:href="#C0_77_25723a6230" y="94.81375"/>
    </g>
    <g clip-path="url(#pa434ee1f66)">
     <use style="fill:#63ff94;" x="0.0" xlink:href="#C0_78_4d515f06a6" y="94.81375"/>
    </g>
    <g clip-path="url(#pa434ee1f66)">
     <use style="fill:#66ff90;" x="0.0" xlink:href="#C0_79_7f37ad142a" y="94.81375"/>
    </g>
    <g clip-path="url(#pa434ee1f66)">
     <use style="fill:#6aff8d;" x="0.0" xlink:href="#C0_7a_e093017e67" y="94.81375"/>
    </g>
    <g clip-path="url(#pa434ee1f66)">
     <use style="fill:#6dff8a;" x="0.0" xlink:href="#C0_7b_85cdae1d95" y="94.81375"/>
    </g>
    <g clip-path="url(#pa434ee1f66)">
     <use style="fill:#70ff87;" x="0.0" xlink:href="#C0_7c_b6ea26c501" y="94.81375"/>
    </g>
    <g clip-path="url(#pa434ee1f66)">
     <use style="fill:#73ff83;" x="0.0" xlink:href="#C0_7d_3a2250fa1e" y="94.81375"/>
    </g>
    <g clip-path="url(#pa434ee1f66)">
     <use style="fill:#77ff80;" x="0.0" xlink:href="#C0_7e_537ab613f3" y="94.81375"/>
    </g>
    <g clip-path="url(#pa434ee1f66)">
     <use style="fill:#7aff7d;" x="0.0" xlink:href="#C0_7f_f1ffb9d470" y="94.81375"/>
    </g>
    <g clip-path="url(#pa434ee1f66)">
     <use style="fill:#7dff7a;" x="0.0" xlink:href="#C0_80_5add3de66e" y="94.81375"/>
    </g>
    <g clip-path="url(#pa434ee1f66)">
     <use style="fill:#80ff77;" x="0.0" xlink:href="#C0_81_7632e7916f" y="94.81375"/>
    </g>
    <g clip-path="url(#pa434ee1f66)">
     <use style="fill:#83ff73;" x="0.0" xlink:href="#C0_82_a05017da0e" y="94.81375"/>
    </g>
    <g clip-path="url(#pa434ee1f66)">
     <use style="fill:#87ff70;" x="0.0" xlink:href="#C0_83_7b3e7bf396" y="94.81375"/>
    </g>
    <g clip-path="url(#pa434ee1f66)">
     <use style="fill:#8aff6d;" x="0.0" xlink:href="#C0_84_df231f780e" y="94.81375"/>
    </g>
    <g clip-path="url(#pa434ee1f66)">
     <use style="fill:#8dff6a;" x="0.0" xlink:href="#C0_85_8a396e25f0" y="94.81375"/>
    </g>
    <g clip-path="url(#pa434ee1f66)">
     <use style="fill:#90ff66;" x="0.0" xlink:href="#C0_86_9d25f2948c" y="94.81375"/>
    </g>
    <g clip-path="url(#pa434ee1f66)">
     <use style="fill:#94ff63;" x="0.0" xlink:href="#C0_87_3b78c29da8" y="94.81375"/>
    </g>
    <g clip-path="url(#pa434ee1f66)">
     <use style="fill:#97ff60;" x="0.0" xlink:href="#C0_88_9be1a0bfb6" y="94.81375"/>
    </g>
    <g clip-path="url(#pa434ee1f66)">
     <use style="fill:#9aff5d;" x="0.0" xlink:href="#C0_89_d55f3e9f1a" y="94.81375"/>
    </g>
    <g clip-path="url(#pa434ee1f66)">
     <use style="fill:#9dff5a;" x="0.0" xlink:href="#C0_8a_f9a041107e" y="94.81375"/>
    </g>
    <g clip-path="url(#pa434ee1f66)">
     <use style="fill:#a0ff56;" x="0.0" xlink:href="#C0_8b_f3b06be7db" y="94.81375"/>
    </g>
    <g clip-path="url(#pa434ee1f66)">
     <use style="fill:#a4ff53;" x="0.0" xlink:href="#C0_8c_555c484db3" y="94.81375"/>
    </g>
    <g clip-path="url(#pa434ee1f66)">
     <use style="fill:#a7ff50;" x="0.0" xlink:href="#C0_8d_91072ebcfd" y="94.81375"/>
    </g>
    <g clip-path="url(#pa434ee1f66)">
     <use style="fill:#aaff4d;" x="0.0" xlink:href="#C0_8e_f49b7b93a6" y="94.81375"/>
    </g>
    <g clip-path="url(#pa434ee1f66)">
     <use style="fill:#adff49;" x="0.0" xlink:href="#C0_8f_7382dda38b" y="94.81375"/>
    </g>
    <g clip-path="url(#pa434ee1f66)">
     <use style="fill:#b1ff46;" x="0.0" xlink:href="#C0_90_10ececcf87" y="94.81375"/>
    </g>
    <g clip-path="url(#pa434ee1f66)">
     <use style="fill:#b4ff43;" x="0.0" xlink:href="#C0_91_65d4ea9bcc" y="94.81375"/>
    </g>
    <g clip-path="url(#pa434ee1f66)">
     <use style="fill:#b7ff40;" x="0.0" xlink:href="#C0_92_17c0611314" y="94.81375"/>
    </g>
    <g clip-path="url(#pa434ee1f66)">
     <use style="fill:#baff3c;" x="0.0" xlink:href="#C0_93_9481e5bab2" y="94.81375"/>
    </g>
    <g clip-path="url(#pa434ee1f66)">
     <use style="fill:#beff39;" x="0.0" xlink:href="#C0_94_2e25ec838c" y="94.81375"/>
    </g>
    <g clip-path="url(#pa434ee1f66)">
     <use style="fill:#c1ff36;" x="0.0" xlink:href="#C0_95_b8c4bd3c1c" y="94.81375"/>
    </g>
    <g clip-path="url(#pa434ee1f66)">
     <use style="fill:#c4ff33;" x="0.0" xlink:href="#C0_96_5d9e8c6a38" y="94.81375"/>
    </g>
    <g clip-path="url(#pa434ee1f66)">
     <use style="fill:#c7ff30;" x="0.0" xlink:href="#C0_97_d65e596e0c" y="94.81375"/>
    </g>
    <g clip-path="url(#pa434ee1f66)">
     <use style="fill:#caff2c;" x="0.0" xlink:href="#C0_98_272f65fc2f" y="94.81375"/>
    </g>
    <g clip-path="url(#pa434ee1f66)">
     <use style="fill:#ceff29;" x="0.0" xlink:href="#C0_99_e032ddd25b" y="94.81375"/>
    </g>
    <g clip-path="url(#pa434ee1f66)">
     <use style="fill:#d1ff26;" x="0.0" xlink:href="#C0_9a_3c5c046670" y="94.81375"/>
    </g>
    <g clip-path="url(#pa434ee1f66)">
     <use style="fill:#d4ff23;" x="0.0" xlink:href="#C0_9b_c1c544ac1a" y="94.81375"/>
    </g>
    <g clip-path="url(#pa434ee1f66)">
     <use style="fill:#d7ff1f;" x="0.0" xlink:href="#C0_9c_13ae11eee1" y="94.81375"/>
    </g>
    <g clip-path="url(#pa434ee1f66)">
     <use style="fill:#dbff1c;" x="0.0" xlink:href="#C0_9d_75c4182699" y="94.81375"/>
    </g>
    <g clip-path="url(#pa434ee1f66)">
     <use style="fill:#deff19;" x="0.0" xlink:href="#C0_9e_16a917730c" y="94.81375"/>
    </g>
    <g clip-path="url(#pa434ee1f66)">
     <use style="fill:#e1ff16;" x="0.0" xlink:href="#C0_9f_1d7eade377" y="94.81375"/>
    </g>
    <g clip-path="url(#pa434ee1f66)">
     <use style="fill:#e4ff13;" x="0.0" xlink:href="#C0_a0_7eeb4c83d9" y="94.81375"/>
    </g>
    <g clip-path="url(#pa434ee1f66)">
     <use style="fill:#e7ff0f;" x="0.0" xlink:href="#C0_a1_4da9b3e9cb" y="94.81375"/>
    </g>
    <g clip-path="url(#pa434ee1f66)">
     <use style="fill:#ebff0c;" x="0.0" xlink:href="#C0_a2_50cccf232f" y="94.81375"/>
    </g>
    <g clip-path="url(#pa434ee1f66)">
     <use style="fill:#eeff09;" x="0.0" xlink:href="#C0_a3_d532886919" y="94.81375"/>
    </g>
    <g clip-path="url(#pa434ee1f66)">
     <use style="fill:#f1fc06;" x="0.0" xlink:href="#C0_a4_dc75b41888" y="94.81375"/>
    </g>
    <g clip-path="url(#pa434ee1f66)">
     <use style="fill:#f4f802;" x="0.0" xlink:href="#C0_a5_19eb50f2c0" y="94.81375"/>
    </g>
    <g clip-path="url(#pa434ee1f66)">
     <use style="fill:#f8f500;" x="0.0" xlink:href="#C0_a6_19364eff30" y="94.81375"/>
    </g>
    <g clip-path="url(#pa434ee1f66)">
     <use style="fill:#fbf100;" x="0.0" xlink:href="#C0_a7_eb5f177cfc" y="94.81375"/>
    </g>
    <g clip-path="url(#pa434ee1f66)">
     <use style="fill:#feed00;" x="0.0" xlink:href="#C0_a8_64b67f0ba5" y="94.81375"/>
    </g>
    <g clip-path="url(#pa434ee1f66)">
     <use style="fill:#ffea00;" x="0.0" xlink:href="#C0_a9_9b6c359bf4" y="94.81375"/>
    </g>
    <g clip-path="url(#pa434ee1f66)">
     <use style="fill:#ffe600;" x="0.0" xlink:href="#C0_aa_605c2e968f" y="94.81375"/>
    </g>
    <g clip-path="url(#pa434ee1f66)">
     <use style="fill:#ffe200;" x="0.0" xlink:href="#C0_ab_e7e525471b" y="94.81375"/>
    </g>
    <g clip-path="url(#pa434ee1f66)">
     <use style="fill:#ffde00;" x="0.0" xlink:href="#C0_ac_f9ae3becf6" y="94.81375"/>
    </g>
    <g clip-path="url(#pa434ee1f66)">
     <use style="fill:#ffdb00;" x="0.0" xlink:href="#C0_ad_7b9958444f" y="94.81375"/>
    </g>
    <g clip-path="url(#pa434ee1f66)">
     <use style="fill:#ffd700;" x="0.0" xlink:href="#C0_ae_d5674975b7" y="94.81375"/>
    </g>
    <g clip-path="url(#pa434ee1f66)">
     <use style="fill:#ffd300;" x="0.0" xlink:href="#C0_af_103a56e2b6" y="94.81375"/>
    </g>
    <g clip-path="url(#pa434ee1f66)">
     <use style="fill:#ffd000;" x="0.0" xlink:href="#C0_b0_44d7661df3" y="94.81375"/>
    </g>
    <g clip-path="url(#pa434ee1f66)">
     <use style="fill:#ffcc00;" x="0.0" xlink:href="#C0_b1_2a5aaeda55" y="94.81375"/>
    </g>
    <g clip-path="url(#pa434ee1f66)">
     <use style="fill:#ffc800;" x="0.0" xlink:href="#C0_b2_7a78324773" y="94.81375"/>
    </g>
    <g clip-path="url(#pa434ee1f66)">
     <use style="fill:#ffc400;" x="0.0" xlink:href="#C0_b3_f24e6dc9a0" y="94.81375"/>
    </g>
    <g clip-path="url(#pa434ee1f66)">
     <use style="fill:#ffc100;" x="0.0" xlink:href="#C0_b4_c71a88560f" y="94.81375"/>
    </g>
    <g clip-path="url(#pa434ee1f66)">
     <use style="fill:#ffbd00;" x="0.0" xlink:href="#C0_b5_8786bd6f60" y="94.81375"/>
    </g>
    <g clip-path="url(#pa434ee1f66)">
     <use style="fill:#ffb900;" x="0.0" xlink:href="#C0_b6_7427c28c85" y="94.81375"/>
    </g>
    <g clip-path="url(#pa434ee1f66)">
     <use style="fill:#ffb600;" x="0.0" xlink:href="#C0_b7_59bd329eae" y="94.81375"/>
    </g>
    <g clip-path="url(#pa434ee1f66)">
     <use style="fill:#ffb200;" x="0.0" xlink:href="#C0_b8_895e28b2b4" y="94.81375"/>
    </g>
    <g clip-path="url(#pa434ee1f66)">
     <use style="fill:#ffae00;" x="0.0" xlink:href="#C0_b9_07ed1fa3dc" y="94.81375"/>
    </g>
    <g clip-path="url(#pa434ee1f66)">
     <use style="fill:#ffab00;" x="0.0" xlink:href="#C0_ba_9cce92c2af" y="94.81375"/>
    </g>
    <g clip-path="url(#pa434ee1f66)">
     <use style="fill:#ffa700;" x="0.0" xlink:href="#C0_bb_aed98ac01b" y="94.81375"/>
    </g>
    <g clip-path="url(#pa434ee1f66)">
     <use style="fill:#ffa300;" x="0.0" xlink:href="#C0_bc_7436b3e860" y="94.81375"/>
    </g>
    <g clip-path="url(#pa434ee1f66)">
     <use style="fill:#ff9f00;" x="0.0" xlink:href="#C0_bd_ea266acaaf" y="94.81375"/>
    </g>
    <g clip-path="url(#pa434ee1f66)">
     <use style="fill:#ff9c00;" x="0.0" xlink:href="#C0_be_5605ee3d68" y="94.81375"/>
    </g>
    <g clip-path="url(#pa434ee1f66)">
     <use style="fill:#ff9800;" x="0.0" xlink:href="#C0_bf_fadef24193" y="94.81375"/>
    </g>
    <g clip-path="url(#pa434ee1f66)">
     <use style="fill:#ff9400;" x="0.0" xlink:href="#C0_c0_049e8d8e77" y="94.81375"/>
    </g>
    <g clip-path="url(#pa434ee1f66)">
     <use style="fill:#ff9100;" x="0.0" xlink:href="#C0_c1_a05a95703b" y="94.81375"/>
    </g>
    <g clip-path="url(#pa434ee1f66)">
     <use style="fill:#ff8d00;" x="0.0" xlink:href="#C0_c2_8a7f91ebfb" y="94.81375"/>
    </g>
    <g clip-path="url(#pa434ee1f66)">
     <use style="fill:#ff8900;" x="0.0" xlink:href="#C0_c3_112c62aa8a" y="94.81375"/>
    </g>
    <g clip-path="url(#pa434ee1f66)">
     <use style="fill:#ff8600;" x="0.0" xlink:href="#C0_c4_3cf121d3fc" y="94.81375"/>
    </g>
    <g clip-path="url(#pa434ee1f66)">
     <use style="fill:#ff8200;" x="0.0" xlink:href="#C0_c5_1918d59e5d" y="94.81375"/>
    </g>
    <g clip-path="url(#pa434ee1f66)">
     <use style="fill:#ff7e00;" x="0.0" xlink:href="#C0_c6_0fd92119a1" y="94.81375"/>
    </g>
    <g clip-path="url(#pa434ee1f66)">
     <use style="fill:#ff7a00;" x="0.0" xlink:href="#C0_c7_4d6bcd507c" y="94.81375"/>
    </g>
    <g clip-path="url(#pa434ee1f66)">
     <use style="fill:#ff7700;" x="0.0" xlink:href="#C0_c8_8c6358884b" y="94.81375"/>
    </g>
    <g clip-path="url(#pa434ee1f66)">
     <use style="fill:#ff7300;" x="0.0" xlink:href="#C0_c9_11b5614cf6" y="94.81375"/>
    </g>
    <g clip-path="url(#pa434ee1f66)">
     <use style="fill:#ff6f00;" x="0.0" xlink:href="#C0_ca_0a846218a9" y="94.81375"/>
    </g>
    <g clip-path="url(#pa434ee1f66)">
     <use style="fill:#ff6c00;" x="0.0" xlink:href="#C0_cb_eaacdc3921" y="94.81375"/>
    </g>
    <g clip-path="url(#pa434ee1f66)">
     <use style="fill:#ff6800;" x="0.0" xlink:href="#C0_cc_0e9bef4662" y="94.81375"/>
    </g>
    <g clip-path="url(#pa434ee1f66)">
     <use style="fill:#ff6400;" x="0.0" xlink:href="#C0_cd_9ef04b603c" y="94.81375"/>
    </g>
    <g clip-path="url(#pa434ee1f66)">
     <use style="fill:#ff6000;" x="0.0" xlink:href="#C0_ce_795ec0aa2a" y="94.81375"/>
    </g>
    <g clip-path="url(#pa434ee1f66)">
     <use style="fill:#ff5d00;" x="0.0" xlink:href="#C0_cf_8b6045bc8e" y="94.81375"/>
    </g>
    <g clip-path="url(#pa434ee1f66)">
     <use style="fill:#ff5900;" x="0.0" xlink:href="#C0_d0_71a4ab8709" y="94.81375"/>
    </g>
    <g clip-path="url(#pa434ee1f66)">
     <use style="fill:#ff5500;" x="0.0" xlink:href="#C0_d1_d17a53a367" y="94.81375"/>
    </g>
    <g clip-path="url(#pa434ee1f66)">
     <use style="fill:#ff5200;" x="0.0" xlink:href="#C0_d2_2738cef437" y="94.81375"/>
    </g>
    <g clip-path="url(#pa434ee1f66)">
     <use style="fill:#ff4e00;" x="0.0" xlink:href="#C0_d3_f8d046fa25" y="94.81375"/>
    </g>
    <g clip-path="url(#pa434ee1f66)">
     <use style="fill:#ff4a00;" x="0.0" xlink:href="#C0_d4_32bf541c93" y="94.81375"/>
    </g>
    <g clip-path="url(#pa434ee1f66)">
     <use style="fill:#ff4700;" x="0.0" xlink:href="#C0_d5_167b9e62cd" y="94.81375"/>
    </g>
    <g clip-path="url(#pa434ee1f66)">
     <use style="fill:#ff4300;" x="0.0" xlink:href="#C0_d6_37626ff1bb" y="94.81375"/>
    </g>
    <g clip-path="url(#pa434ee1f66)">
     <use style="fill:#ff3f00;" x="0.0" xlink:href="#C0_d7_0139c0e566" y="94.81375"/>
    </g>
    <g clip-path="url(#pa434ee1f66)">
     <use style="fill:#ff3b00;" x="0.0" xlink:href="#C0_d8_d30ddc9177" y="94.81375"/>
    </g>
    <g clip-path="url(#pa434ee1f66)">
     <use style="fill:#ff3800;" x="0.0" xlink:href="#C0_d9_2872537540" y="94.81375"/>
    </g>
    <g clip-path="url(#pa434ee1f66)">
     <use style="fill:#ff3400;" x="0.0" xlink:href="#C0_da_77a2cb5581" y="94.81375"/>
    </g>
    <g clip-path="url(#pa434ee1f66)">
     <use style="fill:#ff3000;" x="0.0" xlink:href="#C0_db_f709aff801" y="94.81375"/>
    </g>
    <g clip-path="url(#pa434ee1f66)">
     <use style="fill:#ff2d00;" x="0.0" xlink:href="#C0_dc_57eb698b1c" y="94.81375"/>
    </g>
    <g clip-path="url(#pa434ee1f66)">
     <use style="fill:#ff2900;" x="0.0" xlink:href="#C0_dd_26179c7275" y="94.81375"/>
    </g>
    <g clip-path="url(#pa434ee1f66)">
     <use style="fill:#ff2500;" x="0.0" xlink:href="#C0_de_394e5f2651" y="94.81375"/>
    </g>
    <g clip-path="url(#pa434ee1f66)">
     <use style="fill:#ff2200;" x="0.0" xlink:href="#C0_df_fc3c045e42" y="94.81375"/>
    </g>
    <g clip-path="url(#pa434ee1f66)">
     <use style="fill:#ff1e00;" x="0.0" xlink:href="#C0_e0_e8cffdda75" y="94.81375"/>
    </g>
    <g clip-path="url(#pa434ee1f66)">
     <use style="fill:#ff1a00;" x="0.0" xlink:href="#C0_e1_83755a7b16" y="94.81375"/>
    </g>
    <g clip-path="url(#pa434ee1f66)">
     <use style="fill:#ff1600;" x="0.0" xlink:href="#C0_e2_fae1349315" y="94.81375"/>
    </g>
    <g clip-path="url(#pa434ee1f66)">
     <use style="fill:#ff1300;" x="0.0" xlink:href="#C0_e3_36184c49a3" y="94.81375"/>
    </g>
    <g clip-path="url(#pa434ee1f66)">
     <use style="fill:#fa0f00;" x="0.0" xlink:href="#C0_e4_3baf0239c0" y="94.81375"/>
    </g>
    <g clip-path="url(#pa434ee1f66)">
     <use style="fill:#f60b00;" x="0.0" xlink:href="#C0_e5_6a6b76af49" y="94.81375"/>
    </g>
    <g clip-path="url(#pa434ee1f66)">
     <use style="fill:#f10800;" x="0.0" xlink:href="#C0_e6_588d0b60a9" y="94.81375"/>
    </g>
    <g clip-path="url(#pa434ee1f66)">
     <use style="fill:#ed0400;" x="0.0" xlink:href="#C0_e7_73bcd59023" y="94.81375"/>
    </g>
    <g clip-path="url(#pa434ee1f66)">
     <use style="fill:#e80000;" x="0.0" xlink:href="#C0_e8_ff19f9200d" y="94.81375"/>
    </g>
    <g clip-path="url(#pa434ee1f66)">
     <use style="fill:#e40000;" x="0.0" xlink:href="#C0_e9_dc13a9dca3" y="94.81375"/>
    </g>
    <g clip-path="url(#pa434ee1f66)">
     <use style="fill:#df0000;" x="0.0" xlink:href="#C0_ea_3a822315ca" y="94.81375"/>
    </g>
    <g clip-path="url(#pa434ee1f66)">
     <use style="fill:#da0000;" x="0.0" xlink:href="#C0_eb_20b2483618" y="94.81375"/>
    </g>
    <g clip-path="url(#pa434ee1f66)">
     <use style="fill:#d60000;" x="0.0" xlink:href="#C0_ec_acfd3ea190" y="94.81375"/>
    </g>
    <g clip-path="url(#pa434ee1f66)">
     <use style="fill:#d10000;" x="0.0" xlink:href="#C0_ed_1099a56313" y="94.81375"/>
    </g>
    <g clip-path="url(#pa434ee1f66)">
     <use style="fill:#cd0000;" x="0.0" xlink:href="#C0_ee_c3b1b93ab8" y="94.81375"/>
    </g>
    <g clip-path="url(#pa434ee1f66)">
     <use style="fill:#c80000;" x="0.0" xlink:href="#C0_ef_c179a031ba" y="94.81375"/>
    </g>
    <g clip-path="url(#pa434ee1f66)">
     <use style="fill:#c40000;" x="0.0" xlink:href="#C0_f0_9289f62c79" y="94.81375"/>
    </g>
    <g clip-path="url(#pa434ee1f66)">
     <use style="fill:#bf0000;" x="0.0" xlink:href="#C0_f1_7c2bd6c250" y="94.81375"/>
    </g>
    <g clip-path="url(#pa434ee1f66)">
     <use style="fill:#bb0000;" x="0.0" xlink:href="#C0_f2_3dbd910017" y="94.81375"/>
    </g>
    <g clip-path="url(#pa434ee1f66)">
     <use style="fill:#b60000;" x="0.0" xlink:href="#C0_f3_1c4a829356" y="94.81375"/>
    </g>
    <g clip-path="url(#pa434ee1f66)">
     <use style="fill:#b20000;" x="0.0" xlink:href="#C0_f4_6ddffddc57" y="94.81375"/>
    </g>
    <g clip-path="url(#pa434ee1f66)">
     <use style="fill:#ad0000;" x="0.0" xlink:href="#C0_f5_38df9f666b" y="94.81375"/>
    </g>
    <g clip-path="url(#pa434ee1f66)">
     <use style="fill:#a80000;" x="0.0" xlink:href="#C0_f6_a361682ea2" y="94.81375"/>
    </g>
    <g clip-path="url(#pa434ee1f66)">
     <use style="fill:#a40000;" x="0.0" xlink:href="#C0_f7_7bc16aa8fb" y="94.81375"/>
    </g>
    <g clip-path="url(#pa434ee1f66)">
     <use style="fill:#9f0000;" x="0.0" xlink:href="#C0_f8_c28c47171a" y="94.81375"/>
    </g>
    <g clip-path="url(#pa434ee1f66)">
     <use style="fill:#9b0000;" x="0.0" xlink:href="#C0_f9_c868184825" y="94.81375"/>
    </g>
    <g clip-path="url(#pa434ee1f66)">
     <use style="fill:#960000;" x="0.0" xlink:href="#C0_fa_a25b36c91d" y="94.81375"/>
    </g>
    <g clip-path="url(#pa434ee1f66)">
     <use style="fill:#920000;" x="0.0" xlink:href="#C0_fb_b434cd4ad4" y="94.81375"/>
    </g>
    <g clip-path="url(#pa434ee1f66)">
     <use style="fill:#8d0000;" x="0.0" xlink:href="#C0_fc_0ce3a2b913" y="94.81375"/>
    </g>
    <g clip-path="url(#pa434ee1f66)">
     <use style="fill:#890000;" x="0.0" xlink:href="#C0_fd_eb07bd2c1c" y="94.81375"/>
    </g>
    <g clip-path="url(#pa434ee1f66)">
     <use style="fill:#840000;" x="0.0" xlink:href="#C0_fe_4ea55d0559" y="94.81375"/>
    </g>
    <g clip-path="url(#pa434ee1f66)">
     <use style="fill:#800000;" x="0.0" xlink:href="#C0_ff_b54da65e43" y="94.81375"/>
    </g>
   </g>
   <g id="patch_3">
    <path d="
M10.2234 72
L12.2484 72
L526.598 72
L528.623 72
L528.623 7.2
L526.598 7.2
L12.2484 7.2
L10.2234 7.2
z
" style="fill:none;stroke:#000000;stroke-linejoin:miter;"/>
   </g>
   <g id="matplotlib.axis_1">
    <g id="xtick_1">
     <g id="line2d_1">
      <defs>
       <path d="
M0 0
L0 -4" id="m93b0483c22" style="stroke:#000000;stroke-width:0.5;"/>
      </defs>
      <g>
       <use style="stroke:#000000;stroke-width:0.5;" x="10.2234375" xlink:href="#m93b0483c22" y="72.0"/>
      </g>
     </g>
     <g id="text_1">
      <!-- 0 -->
      <defs>
       <path d="
M31.7812 66.4062
Q24.1719 66.4062 20.3281 58.9062
Q16.5 51.4219 16.5 36.375
Q16.5 21.3906 20.3281 13.8906
Q24.1719 6.39062 31.7812 6.39062
Q39.4531 6.39062 43.2812 13.8906
Q47.125 21.3906 47.125 36.375
Q47.125 51.4219 43.2812 58.9062
Q39.4531 66.4062 31.7812 66.4062
M31.7812 74.2188
Q44.0469 74.2188 50.5156 64.5156
Q56.9844 54.8281 56.9844 36.375
Q56.9844 17.9688 50.5156 8.26562
Q44.0469 -1.42188 31.7812 -1.42188
Q19.5312 -1.42188 13.0625 8.26562
Q6.59375 17.9688 6.59375 36.375
Q6.59375 54.8281 13.0625 64.5156
Q19.5312 74.2188 31.7812 74.2188" id="DejaVuSans-30"/>
      </defs>
      <g transform="translate(7.2 85.118125)scale(0.12 -0.12)">
       <use xlink:href="#DejaVuSans-30"/>
      </g>
     </g>
    </g>
    <g id="xtick_2">
     <g id="line2d_2">
      <g>
       <use style="stroke:#000000;stroke-width:0.5;" x="71.2116727941" xlink:href="#m93b0483c22" y="72.0"/>
      </g>
     </g>
     <g id="text_2">
      <!-- 30 -->
      <defs>
       <path d="
M40.5781 39.3125
Q47.6562 37.7969 51.625 33
Q55.6094 28.2188 55.6094 21.1875
Q55.6094 10.4062 48.1875 4.48438
Q40.7656 -1.42188 27.0938 -1.42188
Q22.5156 -1.42188 17.6562 -0.515625
Q12.7969 0.390625 7.625 2.20312
L7.625 11.7188
Q11.7188 9.32812 16.5938 8.10938
Q21.4844 6.89062 26.8125 6.89062
Q36.0781 6.89062 40.9375 10.5469
Q45.7969 14.2031 45.7969 21.1875
Q45.7969 27.6406 41.2812 31.2656
Q36.7656 34.9062 28.7188 34.9062
L20.2188 34.9062
L20.2188 43.0156
L29.1094 43.0156
Q36.375 43.0156 40.2344 45.9219
Q44.0938 48.8281 44.0938 54.2969
Q44.0938 59.9062 40.1094 62.9062
Q36.1406 65.9219 28.7188 65.9219
Q24.6562 65.9219 20.0156 65.0312
Q15.375 64.1562 9.8125 62.3125
L9.8125 71.0938
Q15.4375 72.6562 20.3438 73.4375
Q25.25 74.2188 29.5938 74.2188
Q40.8281 74.2188 47.3594 69.1094
Q53.9062 64.0156 53.9062 55.3281
Q53.9062 49.2656 50.4375 45.0938
Q46.9688 40.9219 40.5781 39.3125" id="DejaVuSans-33"/>
      </defs>
      <g transform="translate(64.4326102941 85.118125)scale(0.12 -0.12)">
       <use xlink:href="#DejaVuSans-33"/>
       <use x="63.623046875" xlink:href="#DejaVuSans-30"/>
      </g>
     </g>
    </g>
    <g id="xtick_3">
     <g id="line2d_3">
      <g>
       <use style="stroke:#000000;stroke-width:0.5;" x="132.199908088" xlink:href="#m93b0483c22" y="72.0"/>
      </g>
     </g>
     <g id="text_3">
      <!-- 60 -->
      <defs>
       <path d="
M33.0156 40.375
Q26.375 40.375 22.4844 35.8281
Q18.6094 31.2969 18.6094 23.3906
Q18.6094 15.5312 22.4844 10.9531
Q26.375 6.39062 33.0156 6.39062
Q39.6562 6.39062 43.5312 10.9531
Q47.4062 15.5312 47.4062 23.3906
Q47.4062 31.2969 43.5312 35.8281
Q39.6562 40.375 33.0156 40.375
M52.5938 71.2969
L52.5938 62.3125
Q48.875 64.0625 45.0938 64.9844
Q41.3125 65.9219 37.5938 65.9219
Q27.8281 65.9219 22.6719 59.3281
Q17.5312 52.7344 16.7969 39.4062
Q19.6719 43.6562 24.0156 45.9219
Q28.375 48.1875 33.5938 48.1875
Q44.5781 48.1875 50.9531 41.5156
Q57.3281 34.8594 57.3281 23.3906
Q57.3281 12.1562 50.6875 5.35938
Q44.0469 -1.42188 33.0156 -1.42188
Q20.3594 -1.42188 13.6719 8.26562
Q6.98438 17.9688 6.98438 36.375
Q6.98438 53.6562 15.1875 63.9375
Q23.3906 74.2188 37.2031 74.2188
Q40.9219 74.2188 44.7031 73.4844
Q48.4844 72.75 52.5938 71.2969" id="DejaVuSans-36"/>
      </defs>
      <g transform="translate(125.382408088 85.118125)scale(0.12 -0.12)">
       <use xlink:href="#DejaVuSans-36"/>
       <use x="63.623046875" xlink:href="#DejaVuSans-30"/>
      </g>
     </g>
    </g>
    <g id="xtick_4">
     <g id="line2d_4">
      <g>
       <use style="stroke:#000000;stroke-width:0.5;" x="193.188143382" xlink:href="#m93b0483c22" y="72.0"/>
      </g>
     </g>
     <g id="text_4">
      <!-- 90 -->
      <defs>
       <path d="
M10.9844 1.51562
L10.9844 10.5
Q14.7031 8.73438 18.5 7.8125
Q22.3125 6.89062 25.9844 6.89062
Q35.75 6.89062 40.8906 13.4531
Q46.0469 20.0156 46.7812 33.4062
Q43.9531 29.2031 39.5938 26.9531
Q35.25 24.7031 29.9844 24.7031
Q19.0469 24.7031 12.6719 31.3125
Q6.29688 37.9375 6.29688 49.4219
Q6.29688 60.6406 12.9375 67.4219
Q19.5781 74.2188 30.6094 74.2188
Q43.2656 74.2188 49.9219 64.5156
Q56.5938 54.8281 56.5938 36.375
Q56.5938 19.1406 48.4062 8.85938
Q40.2344 -1.42188 26.4219 -1.42188
Q22.7031 -1.42188 18.8906 -0.6875
Q15.0938 0.046875 10.9844 1.51562
M30.6094 32.4219
Q37.25 32.4219 41.125 36.9531
Q45.0156 41.5 45.0156 49.4219
Q45.0156 57.2812 41.125 61.8438
Q37.25 66.4062 30.6094 66.4062
Q23.9688 66.4062 20.0938 61.8438
Q16.2188 57.2812 16.2188 49.4219
Q16.2188 41.5 20.0938 36.9531
Q23.9688 32.4219 30.6094 32.4219" id="DejaVuSans-39"/>
      </defs>
      <g transform="translate(186.329393382 85.118125)scale(0.12 -0.12)">
       <use xlink:href="#DejaVuSans-39"/>
       <use x="63.623046875" xlink:href="#DejaVuSans-30"/>
      </g>
     </g>
    </g>
    <g id="xtick_5">
     <g id="line2d_5">
      <g>
       <use style="stroke:#000000;stroke-width:0.5;" x="254.176378676" xlink:href="#m93b0483c22" y="72.0"/>
      </g>
     </g>
     <g id="text_5">
      <!-- 120 -->
      <defs>
       <path d="
M12.4062 8.29688
L28.5156 8.29688
L28.5156 63.9219
L10.9844 60.4062
L10.9844 69.3906
L28.4219 72.9062
L38.2812 72.9062
L38.2812 8.29688
L54.3906 8.29688
L54.3906 0
L12.4062 0
z
" id="DejaVuSans-31"/>
       <path d="
M19.1875 8.29688
L53.6094 8.29688
L53.6094 0
L7.32812 0
L7.32812 8.29688
Q12.9375 14.1094 22.625 23.8906
Q32.3281 33.6875 34.8125 36.5312
Q39.5469 41.8438 41.4219 45.5312
Q43.3125 49.2188 43.3125 52.7812
Q43.3125 58.5938 39.2344 62.25
Q35.1562 65.9219 28.6094 65.9219
Q23.9688 65.9219 18.8125 64.3125
Q13.6719 62.7031 7.8125 59.4219
L7.8125 69.3906
Q13.7656 71.7812 18.9375 73
Q24.125 74.2188 28.4219 74.2188
Q39.75 74.2188 46.4844 68.5469
Q53.2188 62.8906 53.2188 53.4219
Q53.2188 48.9219 51.5312 44.8906
Q49.8594 40.875 45.4062 35.4062
Q44.1875 33.9844 37.6406 27.2188
Q31.1094 20.4531 19.1875 8.29688" id="DejaVuSans-32"/>
      </defs>
      <g transform="translate(243.781378676 85.118125)scale(0.12 -0.12)">
       <use xlink:href="#DejaVuSans-31"/>
       <use x="63.623046875" xlink:href="#DejaVuSans-32"/>
       <use x="127.24609375" xlink:href="#DejaVuSans-30"/>
      </g>
     </g>
    </g>
    <g id="xtick_6">
     <g id="line2d_6">
      <g>
       <use style="stroke:#000000;stroke-width:0.5;" x="315.164613971" xlink:href="#m93b0483c22" y="72.0"/>
      </g>
     </g>
     <g id="text_6">
      <!-- 150 -->
      <defs>
       <path d="
M10.7969 72.9062
L49.5156 72.9062
L49.5156 64.5938
L19.8281 64.5938
L19.8281 46.7344
Q21.9688 47.4688 24.1094 47.8281
Q26.2656 48.1875 28.4219 48.1875
Q40.625 48.1875 47.75 41.5
Q54.8906 34.8125 54.8906 23.3906
Q54.8906 11.625 47.5625 5.09375
Q40.2344 -1.42188 26.9062 -1.42188
Q22.3125 -1.42188 17.5469 -0.640625
Q12.7969 0.140625 7.71875 1.70312
L7.71875 11.625
Q12.1094 9.23438 16.7969 8.0625
Q21.4844 6.89062 26.7031 6.89062
Q35.1562 6.89062 40.0781 11.3281
Q45.0156 15.7656 45.0156 23.3906
Q45.0156 31 40.0781 35.4375
Q35.1562 39.8906 26.7031 39.8906
Q22.75 39.8906 18.8125 39.0156
Q14.8906 38.1406 10.7969 36.2812
z
" id="DejaVuSans-35"/>
      </defs>
      <g transform="translate(304.769613971 85.118125)scale(0.12 -0.12)">
       <use xlink:href="#DejaVuSans-31"/>
       <use x="63.623046875" xlink:href="#DejaVuSans-35"/>
       <use x="127.24609375" xlink:href="#DejaVuSans-30"/>
      </g>
     </g>
    </g>
    <g id="xtick_7">
     <g id="line2d_7">
      <g>
       <use style="stroke:#000000;stroke-width:0.5;" x="376.152849265" xlink:href="#m93b0483c22" y="72.0"/>
      </g>
     </g>
     <g id="text_7">
      <!-- 180 -->
      <defs>
       <path d="
M31.7812 34.625
Q24.75 34.625 20.7188 30.8594
Q16.7031 27.0938 16.7031 20.5156
Q16.7031 13.9219 20.7188 10.1562
Q24.75 6.39062 31.7812 6.39062
Q38.8125 6.39062 42.8594 10.1719
Q46.9219 13.9688 46.9219 20.5156
Q46.9219 27.0938 42.8906 30.8594
Q38.875 34.625 31.7812 34.625
M21.9219 38.8125
Q15.5781 40.375 12.0312 44.7188
Q8.5 49.0781 8.5 55.3281
Q8.5 64.0625 14.7188 69.1406
Q20.9531 74.2188 31.7812 74.2188
Q42.6719 74.2188 48.875 69.1406
Q55.0781 64.0625 55.0781 55.3281
Q55.0781 49.0781 51.5312 44.7188
Q48 40.375 41.7031 38.8125
Q48.8281 37.1562 52.7969 32.3125
Q56.7812 27.4844 56.7812 20.5156
Q56.7812 9.90625 50.3125 4.23438
Q43.8438 -1.42188 31.7812 -1.42188
Q19.7344 -1.42188 13.25 4.23438
Q6.78125 9.90625 6.78125 20.5156
Q6.78125 27.4844 10.7812 32.3125
Q14.7969 37.1562 21.9219 38.8125
M18.3125 54.3906
Q18.3125 48.7344 21.8438 45.5625
Q25.3906 42.3906 31.7812 42.3906
Q38.1406 42.3906 41.7188 45.5625
Q45.3125 48.7344 45.3125 54.3906
Q45.3125 60.0625 41.7188 63.2344
Q38.1406 66.4062 31.7812 66.4062
Q25.3906 66.4062 21.8438 63.2344
Q18.3125 60.0625 18.3125 54.3906" id="DejaVuSans-38"/>
      </defs>
      <g transform="translate(365.757849265 85.118125)scale(0.12 -0.12)">
       <use xlink:href="#DejaVuSans-31"/>
       <use x="63.623046875" xlink:href="#DejaVuSans-38"/>
       <use x="127.24609375" xlink:href="#DejaVuSans-30"/>
      </g>
     </g>
    </g>
    <g id="xtick_8">
     <g id="line2d_8">
      <g>
       <use style="stroke:#000000;stroke-width:0.5;" x="437.141084559" xlink:href="#m93b0483c22" y="72.0"/>
      </g>
     </g>
     <g id="text_8">
      <!-- 210 -->
      <g transform="translate(426.526709559 85.118125)scale(0.12 -0.12)">
       <use xlink:href="#DejaVuSans-32"/>
       <use x="63.623046875" xlink:href="#DejaVuSans-31"/>
       <use x="127.24609375" xlink:href="#DejaVuSans-30"/>
      </g>
     </g>
    </g>
    <g id="xtick_9">
     <g id="line2d_9">
      <g>
       <use style="stroke:#000000;stroke-width:0.5;" x="498.129319853" xlink:href="#m93b0483c22" y="72.0"/>
      </g>
     </g>
     <g id="text_9">
      <!-- 240 -->
      <defs>
       <path d="
M37.7969 64.3125
L12.8906 25.3906
L37.7969 25.3906
z

M35.2031 72.9062
L47.6094 72.9062
L47.6094 25.3906
L58.0156 25.3906
L58.0156 17.1875
L47.6094 17.1875
L47.6094 0
L37.7969 0
L37.7969 17.1875
L4.89062 17.1875
L4.89062 26.7031
z
" id="DejaVuSans-34"/>
      </defs>
      <g transform="translate(487.514944853 85.118125)scale(0.12 -0.12)">
       <use xlink:href="#DejaVuSans-32"/>
       <use x="63.623046875" xlink:href="#DejaVuSans-34"/>
       <use x="127.24609375" xlink:href="#DejaVuSans-30"/>
      </g>
     </g>
    </g>
   </g>
   <g id="matplotlib.axis_2"/>
  </g>
 </g>
 <defs>
  <clipPath id="pa434ee1f66">
   <rect height="64.8" width="518.4" x="10.2234375" y="7.2"/>
  </clipPath>
 </defs>
</svg>
